<svg xmlns="http://www.w3.org/2000/svg" xmlns:xlink="http://www.w3.org/1999/xlink" width="100%" height="100%" version="1.1" viewBox="0 0 413 318" xml:space="preserve" style="fill-rule:evenodd;clip-rule:evenodd;stroke-linecap:round"><g><g transform="matrix(1,0,0,1,202.427,246.31)"><g id="schematic"><path d="M11.15,0.576L11.15,22.176" style="fill:none;fill-rule:nonzero;stroke:#000;stroke-width:1.15px"/><path d="M14.75,7.776L14.75,14.976" style="fill:none;fill-rule:nonzero;stroke:#000;stroke-width:1.15px"/><path d="M18.35,0.576L18.35,22.176" style="fill:none;fill-rule:nonzero;stroke:#000;stroke-width:1.15px"/><path d="M21.95,7.776L21.95,14.976" style="fill:none;fill-rule:nonzero;stroke:#000;stroke-width:1.15px"/><path d="M7.55,11.376L10.43,11.376" style="fill:none;fill-rule:nonzero;stroke:#000;stroke-width:.43px"/><path id="connector0pin" d="M29.15,11.376L21.95,11.376" style="fill:none;fill-rule:nonzero;stroke:#787878;stroke-width:.7px"/><g><text x="-.695" y="0" style="font-family:'ArialMT','Arial',sans-serif;font-size:2.5px;fill:#8c8c8c" transform="matrix(1,0,0,1,25.5501,10.326)">1</text></g><path id="connector1pin" d="M0.35,11.376L7.55,11.376" style="fill:none;fill-rule:nonzero;stroke:#787878;stroke-width:.7px"/><g><text x="-.695" y="0" style="font-family:'ArialMT','Arial',sans-serif;font-size:2.5px;fill:#8c8c8c" transform="matrix(1,0,0,1,3.95001,10.326)">2</text></g></g></g></g><g><g transform="matrix(1,0,0,1,70.4763,41.4701)"><g id="schematic1"><g><path d="M13.5,14.966L9.9,14.966C9.707,14.966 9.55,14.81 9.55,14.616C9.55,14.422 9.706,14.266 9.9,14.266L13.5,14.266C13.693,14.266 13.85,14.422 13.85,14.616C13.85,14.81 13.694,14.966 13.5,14.966Z" style="fill-rule:nonzero"/></g><g><path d="M9.9,14.966L6.3,14.966C6.107,14.966 5.95,14.81 5.95,14.616C5.95,14.422 6.107,14.266 6.3,14.266L9.9,14.266C10.093,14.266 10.25,14.422 10.25,14.616C10.25,14.81 10.093,14.966 9.9,14.966Z" style="fill-rule:nonzero"/></g><g><path d="M9.9,14.616L6.3,7.416L13.5,7.416L9.9,14.616Z" style="fill:#fff;fill-rule:nonzero"/><path d="M9.9,15.398L5.734,7.066L14.067,7.066L9.9,15.398ZM6.866,7.766L9.9,13.834L12.934,7.766L6.866,7.766Z" style="fill-rule:nonzero"/></g><g><path d="M9.9,14.841C9.776,14.841 9.675,14.74 9.675,14.616L9.675,7.416C9.675,7.292 9.776,7.191 9.9,7.191C10.024,7.191 10.125,7.292 10.125,7.416L10.125,14.616C10.124,14.74 10.024,14.841 9.9,14.841Z" style="fill-rule:nonzero"/></g><g><path d="M1.8,12.141C1.742,12.141 1.685,12.12 1.641,12.076C1.553,11.988 1.553,11.846 1.641,11.758L3.981,9.417C4.069,9.329 4.211,9.329 4.299,9.417C4.387,9.505 4.387,9.647 4.299,9.735L1.959,12.076C1.915,12.12 1.858,12.141 1.8,12.141Z" style="fill-rule:nonzero"/></g><g><path d="M2.16,15.381C2.102,15.381 2.045,15.36 2.001,15.316C1.913,15.228 1.913,15.086 2.001,14.998L4.341,12.658C4.429,12.57 4.571,12.57 4.659,12.658C4.747,12.746 4.747,12.888 4.659,12.976L2.319,15.316C2.276,15.359 2.218,15.381 2.16,15.381Z" style="fill-rule:nonzero"/></g><g id="connector0pin1"><path d="M9.9,22.166C9.707,22.166 9.55,22.01 9.55,21.816L9.55,14.616C9.55,14.423 9.706,14.266 9.9,14.266C10.094,14.266 10.25,14.422 10.25,14.616L10.25,21.816C10.249,22.01 10.093,22.166 9.9,22.166Z" style="fill:#787878;fill-rule:nonzero"/></g><g id="connector0terminal"><rect width=".001" height=".001" x="9.9" y="21.816" style="fill:none"/></g><g><g><g><g><g><path d="M-11.647,5.54L-12.538,5.54L-12.538,5.388L-12.196,5.016C-12.147,4.963 -12.103,4.915 -12.065,4.871C-12.027,4.827 -11.994,4.785 -11.966,4.743C-11.94,4.701 -11.919,4.659 -11.904,4.618C-11.889,4.575 -11.883,4.53 -11.883,4.48C-11.883,4.442 -11.888,4.408 -11.9,4.378C-11.912,4.348 -11.927,4.324 -11.947,4.303C-11.968,4.283 -11.992,4.268 -12.02,4.257C-12.048,4.246 -12.08,4.241 -12.114,4.241C-12.176,4.241 -12.232,4.254 -12.281,4.279C-12.332,4.303 -12.379,4.336 -12.424,4.375L-12.524,4.259C-12.499,4.236 -12.469,4.213 -12.44,4.194C-12.411,4.173 -12.377,4.155 -12.343,4.14C-12.309,4.125 -12.272,4.114 -12.234,4.104C-12.196,4.096 -12.155,4.091 -12.113,4.091C-12.05,4.091 -11.994,4.1 -11.944,4.117C-11.893,4.135 -11.85,4.16 -11.815,4.193C-11.78,4.225 -11.752,4.265 -11.733,4.312C-11.714,4.36 -11.705,4.413 -11.705,4.472C-11.705,4.528 -11.714,4.58 -11.731,4.63C-11.748,4.68 -11.772,4.73 -11.801,4.778C-11.832,4.826 -11.867,4.875 -11.91,4.924C-11.951,4.973 -11.997,5.024 -12.046,5.076L-12.32,5.37L-12.32,5.378L-11.647,5.378L-11.647,5.54Z" style="fill:#787878;fill-rule:nonzero" transform="matrix(7.04481e-16,-1,1,7.04481e-16,3.429,6.4262)"/></g></g></g></g></g><g id="connector1pin1"><path d="M9.9,7.766C9.707,7.766 9.55,7.609 9.55,7.416L9.55,0.216C9.55,0.023 9.706,-0.134 9.9,-0.134C10.094,-0.134 10.25,0.023 10.25,0.216L10.25,7.416C10.249,7.609 10.093,7.766 9.9,7.766Z" style="fill:#787878;fill-rule:nonzero"/></g><g><g><g><g><g><path d="M-2.616,5.54L-2.788,5.54L-2.788,4.558C-2.788,4.526 -2.787,4.495 -2.786,4.463C-2.785,4.431 -2.784,4.4 -2.783,4.371C-2.782,4.343 -2.781,4.317 -2.781,4.295C-2.792,4.307 -2.802,4.316 -2.81,4.325C-2.818,4.334 -2.827,4.342 -2.836,4.349C-2.845,4.356 -2.854,4.365 -2.864,4.374C-2.874,4.382 -2.885,4.393 -2.899,4.404L-3.044,4.522L-3.138,4.402L-2.764,4.11L-2.618,4.11L-2.618,5.54L-2.616,5.54Z" style="fill:#787878;fill-rule:nonzero" transform="matrix(7.04481e-16,-1,1,7.04481e-16,3.429,1.3462)"/></g></g></g></g></g><g><path d="M0.18,13.536L1.26,11.015L2.7,12.453L0.18,13.536Z" style="fill-rule:nonzero"/></g><g><path d="M0.54,16.776L1.62,14.255L3.058,15.693L0.54,16.776Z" style="fill-rule:nonzero"/></g></g></g></g><g><g transform="matrix(1,0,0,1,135.276,41.4701)"><g id="schematic2"><g><path d="M13.5,14.966L9.9,14.966C9.707,14.966 9.55,14.81 9.55,14.616C9.55,14.422 9.706,14.266 9.9,14.266L13.5,14.266C13.693,14.266 13.85,14.422 13.85,14.616C13.85,14.81 13.694,14.966 13.5,14.966Z" style="fill-rule:nonzero"/></g><g><path d="M9.9,14.966L6.3,14.966C6.107,14.966 5.95,14.81 5.95,14.616C5.95,14.422 6.107,14.266 6.3,14.266L9.9,14.266C10.093,14.266 10.25,14.422 10.25,14.616C10.25,14.81 10.093,14.966 9.9,14.966Z" style="fill-rule:nonzero"/></g><g><path d="M9.9,14.616L6.3,7.416L13.5,7.416L9.9,14.616Z" style="fill:#fff;fill-rule:nonzero"/><path d="M9.9,15.398L5.734,7.066L14.067,7.066L9.9,15.398ZM6.866,7.766L9.9,13.834L12.934,7.766L6.866,7.766Z" style="fill-rule:nonzero"/></g><g><path d="M9.9,14.841C9.776,14.841 9.675,14.74 9.675,14.616L9.675,7.416C9.675,7.292 9.776,7.191 9.9,7.191C10.024,7.191 10.125,7.292 10.125,7.416L10.125,14.616C10.124,14.74 10.024,14.841 9.9,14.841Z" style="fill-rule:nonzero"/></g><g><path d="M1.8,12.141C1.742,12.141 1.685,12.12 1.641,12.076C1.553,11.988 1.553,11.846 1.641,11.758L3.981,9.417C4.069,9.329 4.211,9.329 4.299,9.417C4.387,9.505 4.387,9.647 4.299,9.735L1.959,12.076C1.915,12.12 1.858,12.141 1.8,12.141Z" style="fill-rule:nonzero"/></g><g><path d="M2.16,15.381C2.102,15.381 2.045,15.36 2.001,15.316C1.913,15.228 1.913,15.086 2.001,14.998L4.341,12.658C4.429,12.57 4.571,12.57 4.659,12.658C4.747,12.746 4.747,12.888 4.659,12.976L2.319,15.316C2.276,15.359 2.218,15.381 2.16,15.381Z" style="fill-rule:nonzero"/></g><g id="connector0pin2"><path d="M9.9,22.166C9.707,22.166 9.55,22.01 9.55,21.816L9.55,14.616C9.55,14.423 9.706,14.266 9.9,14.266C10.094,14.266 10.25,14.422 10.25,14.616L10.25,21.816C10.249,22.01 10.093,22.166 9.9,22.166Z" style="fill:#787878;fill-rule:nonzero"/></g><g id="connector0terminal1"><rect width=".001" height=".001" x="9.9" y="21.816" style="fill:none"/></g><g><g><g><g><g><path d="M-11.647,5.54L-12.538,5.54L-12.538,5.388L-12.196,5.016C-12.147,4.963 -12.103,4.915 -12.065,4.871C-12.027,4.827 -11.994,4.785 -11.966,4.743C-11.94,4.701 -11.919,4.659 -11.904,4.618C-11.889,4.575 -11.883,4.53 -11.883,4.48C-11.883,4.442 -11.888,4.408 -11.9,4.378C-11.912,4.348 -11.927,4.324 -11.947,4.303C-11.968,4.283 -11.992,4.268 -12.02,4.257C-12.048,4.246 -12.08,4.241 -12.114,4.241C-12.176,4.241 -12.232,4.254 -12.281,4.279C-12.332,4.303 -12.379,4.336 -12.424,4.375L-12.524,4.259C-12.499,4.236 -12.469,4.213 -12.44,4.194C-12.411,4.173 -12.377,4.155 -12.343,4.14C-12.309,4.125 -12.272,4.114 -12.234,4.104C-12.196,4.096 -12.155,4.091 -12.113,4.091C-12.05,4.091 -11.994,4.1 -11.944,4.117C-11.893,4.135 -11.85,4.16 -11.815,4.193C-11.78,4.225 -11.752,4.265 -11.733,4.312C-11.714,4.36 -11.705,4.413 -11.705,4.472C-11.705,4.528 -11.714,4.58 -11.731,4.63C-11.748,4.68 -11.772,4.73 -11.801,4.778C-11.832,4.826 -11.867,4.875 -11.91,4.924C-11.951,4.973 -11.997,5.024 -12.046,5.076L-12.32,5.37L-12.32,5.378L-11.647,5.378L-11.647,5.54Z" style="fill:#787878;fill-rule:nonzero" transform="matrix(7.04481e-16,-1,1,7.04481e-16,3.429,6.4262)"/></g></g></g></g></g><g id="connector1pin2"><path d="M9.9,7.766C9.707,7.766 9.55,7.609 9.55,7.416L9.55,0.216C9.55,0.023 9.706,-0.134 9.9,-0.134C10.094,-0.134 10.25,0.023 10.25,0.216L10.25,7.416C10.249,7.609 10.093,7.766 9.9,7.766Z" style="fill:#787878;fill-rule:nonzero"/></g><g><g><g><g><g><path d="M-2.616,5.54L-2.788,5.54L-2.788,4.558C-2.788,4.526 -2.787,4.495 -2.786,4.463C-2.785,4.431 -2.784,4.4 -2.783,4.371C-2.782,4.343 -2.781,4.317 -2.781,4.295C-2.792,4.307 -2.802,4.316 -2.81,4.325C-2.818,4.334 -2.827,4.342 -2.836,4.349C-2.845,4.356 -2.854,4.365 -2.864,4.374C-2.874,4.382 -2.885,4.393 -2.899,4.404L-3.044,4.522L-3.138,4.402L-2.764,4.11L-2.618,4.11L-2.618,5.54L-2.616,5.54Z" style="fill:#787878;fill-rule:nonzero" transform="matrix(7.04481e-16,-1,1,7.04481e-16,3.429,1.3462)"/></g></g></g></g></g><g><path d="M0.18,13.536L1.26,11.015L2.7,12.453L0.18,13.536Z" style="fill-rule:nonzero"/></g><g><path d="M0.54,16.776L1.62,14.255L3.058,15.693L0.54,16.776Z" style="fill-rule:nonzero"/></g></g></g></g><g><g transform="matrix(1,0,0,1,113.676,41.4701)"><g id="schematic3"><g><path d="M13.5,14.966L9.9,14.966C9.707,14.966 9.55,14.81 9.55,14.616C9.55,14.422 9.706,14.266 9.9,14.266L13.5,14.266C13.693,14.266 13.85,14.422 13.85,14.616C13.85,14.81 13.694,14.966 13.5,14.966Z" style="fill-rule:nonzero"/></g><g><path d="M9.9,14.966L6.3,14.966C6.107,14.966 5.95,14.81 5.95,14.616C5.95,14.422 6.107,14.266 6.3,14.266L9.9,14.266C10.093,14.266 10.25,14.422 10.25,14.616C10.25,14.81 10.093,14.966 9.9,14.966Z" style="fill-rule:nonzero"/></g><g><path d="M9.9,14.616L6.3,7.416L13.5,7.416L9.9,14.616Z" style="fill:#fff;fill-rule:nonzero"/><path d="M9.9,15.398L5.734,7.066L14.067,7.066L9.9,15.398ZM6.866,7.766L9.9,13.834L12.934,7.766L6.866,7.766Z" style="fill-rule:nonzero"/></g><g><path d="M9.9,14.841C9.776,14.841 9.675,14.74 9.675,14.616L9.675,7.416C9.675,7.292 9.776,7.191 9.9,7.191C10.024,7.191 10.125,7.292 10.125,7.416L10.125,14.616C10.124,14.74 10.024,14.841 9.9,14.841Z" style="fill-rule:nonzero"/></g><g><path d="M1.8,12.141C1.742,12.141 1.685,12.12 1.641,12.076C1.553,11.988 1.553,11.846 1.641,11.758L3.981,9.417C4.069,9.329 4.211,9.329 4.299,9.417C4.387,9.505 4.387,9.647 4.299,9.735L1.959,12.076C1.915,12.12 1.858,12.141 1.8,12.141Z" style="fill-rule:nonzero"/></g><g><path d="M2.16,15.381C2.102,15.381 2.045,15.36 2.001,15.316C1.913,15.228 1.913,15.086 2.001,14.998L4.341,12.658C4.429,12.57 4.571,12.57 4.659,12.658C4.747,12.746 4.747,12.888 4.659,12.976L2.319,15.316C2.276,15.359 2.218,15.381 2.16,15.381Z" style="fill-rule:nonzero"/></g><g id="connector0pin3"><path d="M9.9,22.166C9.707,22.166 9.55,22.01 9.55,21.816L9.55,14.616C9.55,14.423 9.706,14.266 9.9,14.266C10.094,14.266 10.25,14.422 10.25,14.616L10.25,21.816C10.249,22.01 10.093,22.166 9.9,22.166Z" style="fill:#787878;fill-rule:nonzero"/></g><g id="connector0terminal2"><rect width=".001" height=".001" x="9.9" y="21.816" style="fill:none"/></g><g><g><g><g><g><path d="M-11.647,5.54L-12.538,5.54L-12.538,5.388L-12.196,5.016C-12.147,4.963 -12.103,4.915 -12.065,4.871C-12.027,4.827 -11.994,4.785 -11.966,4.743C-11.94,4.701 -11.919,4.659 -11.904,4.618C-11.889,4.575 -11.883,4.53 -11.883,4.48C-11.883,4.442 -11.888,4.408 -11.9,4.378C-11.912,4.348 -11.927,4.324 -11.947,4.303C-11.968,4.283 -11.992,4.268 -12.02,4.257C-12.048,4.246 -12.08,4.241 -12.114,4.241C-12.176,4.241 -12.232,4.254 -12.281,4.279C-12.332,4.303 -12.379,4.336 -12.424,4.375L-12.524,4.259C-12.499,4.236 -12.469,4.213 -12.44,4.194C-12.411,4.173 -12.377,4.155 -12.343,4.14C-12.309,4.125 -12.272,4.114 -12.234,4.104C-12.196,4.096 -12.155,4.091 -12.113,4.091C-12.05,4.091 -11.994,4.1 -11.944,4.117C-11.893,4.135 -11.85,4.16 -11.815,4.193C-11.78,4.225 -11.752,4.265 -11.733,4.312C-11.714,4.36 -11.705,4.413 -11.705,4.472C-11.705,4.528 -11.714,4.58 -11.731,4.63C-11.748,4.68 -11.772,4.73 -11.801,4.778C-11.832,4.826 -11.867,4.875 -11.91,4.924C-11.951,4.973 -11.997,5.024 -12.046,5.076L-12.32,5.37L-12.32,5.378L-11.647,5.378L-11.647,5.54Z" style="fill:#787878;fill-rule:nonzero" transform="matrix(7.04481e-16,-1,1,7.04481e-16,3.429,6.4262)"/></g></g></g></g></g><g id="connector1pin3"><path d="M9.9,7.766C9.707,7.766 9.55,7.609 9.55,7.416L9.55,0.216C9.55,0.023 9.706,-0.134 9.9,-0.134C10.094,-0.134 10.25,0.023 10.25,0.216L10.25,7.416C10.249,7.609 10.093,7.766 9.9,7.766Z" style="fill:#787878;fill-rule:nonzero"/></g><g><g><g><g><g><path d="M-2.616,5.54L-2.788,5.54L-2.788,4.558C-2.788,4.526 -2.787,4.495 -2.786,4.463C-2.785,4.431 -2.784,4.4 -2.783,4.371C-2.782,4.343 -2.781,4.317 -2.781,4.295C-2.792,4.307 -2.802,4.316 -2.81,4.325C-2.818,4.334 -2.827,4.342 -2.836,4.349C-2.845,4.356 -2.854,4.365 -2.864,4.374C-2.874,4.382 -2.885,4.393 -2.899,4.404L-3.044,4.522L-3.138,4.402L-2.764,4.11L-2.618,4.11L-2.618,5.54L-2.616,5.54Z" style="fill:#787878;fill-rule:nonzero" transform="matrix(7.04481e-16,-1,1,7.04481e-16,3.429,1.3462)"/></g></g></g></g></g><g><path d="M0.18,13.536L1.26,11.015L2.7,12.453L0.18,13.536Z" style="fill-rule:nonzero"/></g><g><path d="M0.54,16.776L1.62,14.255L3.058,15.693L0.54,16.776Z" style="fill-rule:nonzero"/></g></g></g></g><g><g transform="matrix(1,0,0,1,92.0763,41.4701)"><g id="schematic4"><g><path d="M13.5,14.966L9.9,14.966C9.707,14.966 9.55,14.81 9.55,14.616C9.55,14.422 9.706,14.266 9.9,14.266L13.5,14.266C13.693,14.266 13.85,14.422 13.85,14.616C13.85,14.81 13.694,14.966 13.5,14.966Z" style="fill-rule:nonzero"/></g><g><path d="M9.9,14.966L6.3,14.966C6.107,14.966 5.95,14.81 5.95,14.616C5.95,14.422 6.107,14.266 6.3,14.266L9.9,14.266C10.093,14.266 10.25,14.422 10.25,14.616C10.25,14.81 10.093,14.966 9.9,14.966Z" style="fill-rule:nonzero"/></g><g><path d="M9.9,14.616L6.3,7.416L13.5,7.416L9.9,14.616Z" style="fill:#fff;fill-rule:nonzero"/><path d="M9.9,15.398L5.734,7.066L14.067,7.066L9.9,15.398ZM6.866,7.766L9.9,13.834L12.934,7.766L6.866,7.766Z" style="fill-rule:nonzero"/></g><g><path d="M9.9,14.841C9.776,14.841 9.675,14.74 9.675,14.616L9.675,7.416C9.675,7.292 9.776,7.191 9.9,7.191C10.024,7.191 10.125,7.292 10.125,7.416L10.125,14.616C10.124,14.74 10.024,14.841 9.9,14.841Z" style="fill-rule:nonzero"/></g><g><path d="M1.8,12.141C1.742,12.141 1.685,12.12 1.641,12.076C1.553,11.988 1.553,11.846 1.641,11.758L3.981,9.417C4.069,9.329 4.211,9.329 4.299,9.417C4.387,9.505 4.387,9.647 4.299,9.735L1.959,12.076C1.915,12.12 1.858,12.141 1.8,12.141Z" style="fill-rule:nonzero"/></g><g><path d="M2.16,15.381C2.102,15.381 2.045,15.36 2.001,15.316C1.913,15.228 1.913,15.086 2.001,14.998L4.341,12.658C4.429,12.57 4.571,12.57 4.659,12.658C4.747,12.746 4.747,12.888 4.659,12.976L2.319,15.316C2.276,15.359 2.218,15.381 2.16,15.381Z" style="fill-rule:nonzero"/></g><g id="connector0pin4"><path d="M9.9,22.166C9.707,22.166 9.55,22.01 9.55,21.816L9.55,14.616C9.55,14.423 9.706,14.266 9.9,14.266C10.094,14.266 10.25,14.422 10.25,14.616L10.25,21.816C10.249,22.01 10.093,22.166 9.9,22.166Z" style="fill:#787878;fill-rule:nonzero"/></g><g id="connector0terminal3"><rect width=".001" height=".001" x="9.9" y="21.816" style="fill:none"/></g><g><g><g><g><g><path d="M-11.647,5.54L-12.538,5.54L-12.538,5.388L-12.196,5.016C-12.147,4.963 -12.103,4.915 -12.065,4.871C-12.027,4.827 -11.994,4.785 -11.966,4.743C-11.94,4.701 -11.919,4.659 -11.904,4.618C-11.889,4.575 -11.883,4.53 -11.883,4.48C-11.883,4.442 -11.888,4.408 -11.9,4.378C-11.912,4.348 -11.927,4.324 -11.947,4.303C-11.968,4.283 -11.992,4.268 -12.02,4.257C-12.048,4.246 -12.08,4.241 -12.114,4.241C-12.176,4.241 -12.232,4.254 -12.281,4.279C-12.332,4.303 -12.379,4.336 -12.424,4.375L-12.524,4.259C-12.499,4.236 -12.469,4.213 -12.44,4.194C-12.411,4.173 -12.377,4.155 -12.343,4.14C-12.309,4.125 -12.272,4.114 -12.234,4.104C-12.196,4.096 -12.155,4.091 -12.113,4.091C-12.05,4.091 -11.994,4.1 -11.944,4.117C-11.893,4.135 -11.85,4.16 -11.815,4.193C-11.78,4.225 -11.752,4.265 -11.733,4.312C-11.714,4.36 -11.705,4.413 -11.705,4.472C-11.705,4.528 -11.714,4.58 -11.731,4.63C-11.748,4.68 -11.772,4.73 -11.801,4.778C-11.832,4.826 -11.867,4.875 -11.91,4.924C-11.951,4.973 -11.997,5.024 -12.046,5.076L-12.32,5.37L-12.32,5.378L-11.647,5.378L-11.647,5.54Z" style="fill:#787878;fill-rule:nonzero" transform="matrix(7.04481e-16,-1,1,7.04481e-16,3.429,6.4262)"/></g></g></g></g></g><g id="connector1pin4"><path d="M9.9,7.766C9.707,7.766 9.55,7.609 9.55,7.416L9.55,0.216C9.55,0.023 9.706,-0.134 9.9,-0.134C10.094,-0.134 10.25,0.023 10.25,0.216L10.25,7.416C10.249,7.609 10.093,7.766 9.9,7.766Z" style="fill:#787878;fill-rule:nonzero"/></g><g><g><g><g><g><path d="M-2.616,5.54L-2.788,5.54L-2.788,4.558C-2.788,4.526 -2.787,4.495 -2.786,4.463C-2.785,4.431 -2.784,4.4 -2.783,4.371C-2.782,4.343 -2.781,4.317 -2.781,4.295C-2.792,4.307 -2.802,4.316 -2.81,4.325C-2.818,4.334 -2.827,4.342 -2.836,4.349C-2.845,4.356 -2.854,4.365 -2.864,4.374C-2.874,4.382 -2.885,4.393 -2.899,4.404L-3.044,4.522L-3.138,4.402L-2.764,4.11L-2.618,4.11L-2.618,5.54L-2.616,5.54Z" style="fill:#787878;fill-rule:nonzero" transform="matrix(7.04481e-16,-1,1,7.04481e-16,3.429,1.3462)"/></g></g></g></g></g><g><path d="M0.18,13.536L1.26,11.015L2.7,12.453L0.18,13.536Z" style="fill-rule:nonzero"/></g><g><path d="M0.54,16.776L1.62,14.255L3.058,15.693L0.54,16.776Z" style="fill-rule:nonzero"/></g></g></g></g><g><g transform="matrix(1,0,0,1,34.4763,41.4701)"><g id="schematic5"><g><path d="M13.5,14.966L9.9,14.966C9.707,14.966 9.55,14.81 9.55,14.616C9.55,14.422 9.706,14.266 9.9,14.266L13.5,14.266C13.693,14.266 13.85,14.422 13.85,14.616C13.85,14.81 13.694,14.966 13.5,14.966Z" style="fill-rule:nonzero"/></g><g><path d="M9.9,14.966L6.3,14.966C6.107,14.966 5.95,14.81 5.95,14.616C5.95,14.422 6.107,14.266 6.3,14.266L9.9,14.266C10.093,14.266 10.25,14.422 10.25,14.616C10.25,14.81 10.093,14.966 9.9,14.966Z" style="fill-rule:nonzero"/></g><g><path d="M9.9,14.616L6.3,7.416L13.5,7.416L9.9,14.616Z" style="fill:#fff;fill-rule:nonzero"/><path d="M9.9,15.398L5.734,7.066L14.067,7.066L9.9,15.398ZM6.866,7.766L9.9,13.834L12.934,7.766L6.866,7.766Z" style="fill-rule:nonzero"/></g><g><path d="M9.9,14.841C9.776,14.841 9.675,14.74 9.675,14.616L9.675,7.416C9.675,7.292 9.776,7.191 9.9,7.191C10.024,7.191 10.125,7.292 10.125,7.416L10.125,14.616C10.124,14.74 10.024,14.841 9.9,14.841Z" style="fill-rule:nonzero"/></g><g><path d="M1.8,12.141C1.742,12.141 1.685,12.12 1.641,12.076C1.553,11.988 1.553,11.846 1.641,11.758L3.981,9.417C4.069,9.329 4.211,9.329 4.299,9.417C4.387,9.505 4.387,9.647 4.299,9.735L1.959,12.076C1.915,12.12 1.858,12.141 1.8,12.141Z" style="fill-rule:nonzero"/></g><g><path d="M2.16,15.381C2.102,15.381 2.045,15.36 2.001,15.316C1.913,15.228 1.913,15.086 2.001,14.998L4.341,12.658C4.429,12.57 4.571,12.57 4.659,12.658C4.747,12.746 4.747,12.888 4.659,12.976L2.319,15.316C2.276,15.359 2.218,15.381 2.16,15.381Z" style="fill-rule:nonzero"/></g><g id="connector0pin5"><path d="M9.9,22.166C9.707,22.166 9.55,22.01 9.55,21.816L9.55,14.616C9.55,14.423 9.706,14.266 9.9,14.266C10.094,14.266 10.25,14.422 10.25,14.616L10.25,21.816C10.249,22.01 10.093,22.166 9.9,22.166Z" style="fill:#787878;fill-rule:nonzero"/></g><g id="connector0terminal4"><rect width=".001" height=".001" x="9.9" y="21.816" style="fill:none"/></g><g><g><g><g><g><path d="M-11.647,5.54L-12.538,5.54L-12.538,5.388L-12.196,5.016C-12.147,4.963 -12.103,4.915 -12.065,4.871C-12.027,4.827 -11.994,4.785 -11.966,4.743C-11.94,4.701 -11.919,4.659 -11.904,4.618C-11.889,4.575 -11.883,4.53 -11.883,4.48C-11.883,4.442 -11.888,4.408 -11.9,4.378C-11.912,4.348 -11.927,4.324 -11.947,4.303C-11.968,4.283 -11.992,4.268 -12.02,4.257C-12.048,4.246 -12.08,4.241 -12.114,4.241C-12.176,4.241 -12.232,4.254 -12.281,4.279C-12.332,4.303 -12.379,4.336 -12.424,4.375L-12.524,4.259C-12.499,4.236 -12.469,4.213 -12.44,4.194C-12.411,4.173 -12.377,4.155 -12.343,4.14C-12.309,4.125 -12.272,4.114 -12.234,4.104C-12.196,4.096 -12.155,4.091 -12.113,4.091C-12.05,4.091 -11.994,4.1 -11.944,4.117C-11.893,4.135 -11.85,4.16 -11.815,4.193C-11.78,4.225 -11.752,4.265 -11.733,4.312C-11.714,4.36 -11.705,4.413 -11.705,4.472C-11.705,4.528 -11.714,4.58 -11.731,4.63C-11.748,4.68 -11.772,4.73 -11.801,4.778C-11.832,4.826 -11.867,4.875 -11.91,4.924C-11.951,4.973 -11.997,5.024 -12.046,5.076L-12.32,5.37L-12.32,5.378L-11.647,5.378L-11.647,5.54Z" style="fill:#787878;fill-rule:nonzero" transform="matrix(7.04481e-16,-1,1,7.04481e-16,3.429,6.4262)"/></g></g></g></g></g><g id="connector1pin5"><path d="M9.9,7.766C9.707,7.766 9.55,7.609 9.55,7.416L9.55,0.216C9.55,0.023 9.706,-0.134 9.9,-0.134C10.094,-0.134 10.25,0.023 10.25,0.216L10.25,7.416C10.249,7.609 10.093,7.766 9.9,7.766Z" style="fill:#787878;fill-rule:nonzero"/></g><g><g><g><g><g><path d="M-2.616,5.54L-2.788,5.54L-2.788,4.558C-2.788,4.526 -2.787,4.495 -2.786,4.463C-2.785,4.431 -2.784,4.4 -2.783,4.371C-2.782,4.343 -2.781,4.317 -2.781,4.295C-2.792,4.307 -2.802,4.316 -2.81,4.325C-2.818,4.334 -2.827,4.342 -2.836,4.349C-2.845,4.356 -2.854,4.365 -2.864,4.374C-2.874,4.382 -2.885,4.393 -2.899,4.404L-3.044,4.522L-3.138,4.402L-2.764,4.11L-2.618,4.11L-2.618,5.54L-2.616,5.54Z" style="fill:#787878;fill-rule:nonzero" transform="matrix(7.04481e-16,-1,1,7.04481e-16,3.429,1.3462)"/></g></g></g></g></g><g><path d="M0.18,13.536L1.26,11.015L2.7,12.453L0.18,13.536Z" style="fill-rule:nonzero"/></g><g><path d="M0.54,16.776L1.62,14.255L3.058,15.693L0.54,16.776Z" style="fill-rule:nonzero"/></g></g></g></g><g><g transform="matrix(1,0,0,1,12.8763,41.4701)"><g id="schematic6"><g><path d="M13.5,14.966L9.9,14.966C9.707,14.966 9.55,14.81 9.55,14.616C9.55,14.422 9.706,14.266 9.9,14.266L13.5,14.266C13.693,14.266 13.85,14.422 13.85,14.616C13.85,14.81 13.694,14.966 13.5,14.966Z" style="fill-rule:nonzero"/></g><g><path d="M9.9,14.966L6.3,14.966C6.107,14.966 5.95,14.81 5.95,14.616C5.95,14.422 6.107,14.266 6.3,14.266L9.9,14.266C10.093,14.266 10.25,14.422 10.25,14.616C10.25,14.81 10.093,14.966 9.9,14.966Z" style="fill-rule:nonzero"/></g><g><path d="M9.9,14.616L6.3,7.416L13.5,7.416L9.9,14.616Z" style="fill:#fff;fill-rule:nonzero"/><path d="M9.9,15.398L5.734,7.066L14.067,7.066L9.9,15.398ZM6.866,7.766L9.9,13.834L12.934,7.766L6.866,7.766Z" style="fill-rule:nonzero"/></g><g><path d="M9.9,14.841C9.776,14.841 9.675,14.74 9.675,14.616L9.675,7.416C9.675,7.292 9.776,7.191 9.9,7.191C10.024,7.191 10.125,7.292 10.125,7.416L10.125,14.616C10.124,14.74 10.024,14.841 9.9,14.841Z" style="fill-rule:nonzero"/></g><g><path d="M1.8,12.141C1.742,12.141 1.685,12.12 1.641,12.076C1.553,11.988 1.553,11.846 1.641,11.758L3.981,9.417C4.069,9.329 4.211,9.329 4.299,9.417C4.387,9.505 4.387,9.647 4.299,9.735L1.959,12.076C1.915,12.12 1.858,12.141 1.8,12.141Z" style="fill-rule:nonzero"/></g><g><path d="M2.16,15.381C2.102,15.381 2.045,15.36 2.001,15.316C1.913,15.228 1.913,15.086 2.001,14.998L4.341,12.658C4.429,12.57 4.571,12.57 4.659,12.658C4.747,12.746 4.747,12.888 4.659,12.976L2.319,15.316C2.276,15.359 2.218,15.381 2.16,15.381Z" style="fill-rule:nonzero"/></g><g id="connector0pin6"><path d="M9.9,22.166C9.707,22.166 9.55,22.01 9.55,21.816L9.55,14.616C9.55,14.423 9.706,14.266 9.9,14.266C10.094,14.266 10.25,14.422 10.25,14.616L10.25,21.816C10.249,22.01 10.093,22.166 9.9,22.166Z" style="fill:#787878;fill-rule:nonzero"/></g><g id="connector0terminal5"><rect width=".001" height=".001" x="9.9" y="21.816" style="fill:none"/></g><g><g><g><g><g><path d="M-11.647,5.54L-12.538,5.54L-12.538,5.388L-12.196,5.016C-12.147,4.963 -12.103,4.915 -12.065,4.871C-12.027,4.827 -11.994,4.785 -11.966,4.743C-11.94,4.701 -11.919,4.659 -11.904,4.618C-11.889,4.575 -11.883,4.53 -11.883,4.48C-11.883,4.442 -11.888,4.408 -11.9,4.378C-11.912,4.348 -11.927,4.324 -11.947,4.303C-11.968,4.283 -11.992,4.268 -12.02,4.257C-12.048,4.246 -12.08,4.241 -12.114,4.241C-12.176,4.241 -12.232,4.254 -12.281,4.279C-12.332,4.303 -12.379,4.336 -12.424,4.375L-12.524,4.259C-12.499,4.236 -12.469,4.213 -12.44,4.194C-12.411,4.173 -12.377,4.155 -12.343,4.14C-12.309,4.125 -12.272,4.114 -12.234,4.104C-12.196,4.096 -12.155,4.091 -12.113,4.091C-12.05,4.091 -11.994,4.1 -11.944,4.117C-11.893,4.135 -11.85,4.16 -11.815,4.193C-11.78,4.225 -11.752,4.265 -11.733,4.312C-11.714,4.36 -11.705,4.413 -11.705,4.472C-11.705,4.528 -11.714,4.58 -11.731,4.63C-11.748,4.68 -11.772,4.73 -11.801,4.778C-11.832,4.826 -11.867,4.875 -11.91,4.924C-11.951,4.973 -11.997,5.024 -12.046,5.076L-12.32,5.37L-12.32,5.378L-11.647,5.378L-11.647,5.54Z" style="fill:#787878;fill-rule:nonzero" transform="matrix(7.04481e-16,-1,1,7.04481e-16,3.429,6.4262)"/></g></g></g></g></g><g id="connector1pin6"><path d="M9.9,7.766C9.707,7.766 9.55,7.609 9.55,7.416L9.55,0.216C9.55,0.023 9.706,-0.134 9.9,-0.134C10.094,-0.134 10.25,0.023 10.25,0.216L10.25,7.416C10.249,7.609 10.093,7.766 9.9,7.766Z" style="fill:#787878;fill-rule:nonzero"/></g><g><g><g><g><g><path d="M-2.616,5.54L-2.788,5.54L-2.788,4.558C-2.788,4.526 -2.787,4.495 -2.786,4.463C-2.785,4.431 -2.784,4.4 -2.783,4.371C-2.782,4.343 -2.781,4.317 -2.781,4.295C-2.792,4.307 -2.802,4.316 -2.81,4.325C-2.818,4.334 -2.827,4.342 -2.836,4.349C-2.845,4.356 -2.854,4.365 -2.864,4.374C-2.874,4.382 -2.885,4.393 -2.899,4.404L-3.044,4.522L-3.138,4.402L-2.764,4.11L-2.618,4.11L-2.618,5.54L-2.616,5.54Z" style="fill:#787878;fill-rule:nonzero" transform="matrix(7.04481e-16,-1,1,7.04481e-16,3.429,1.3462)"/></g></g></g></g></g><g><path d="M0.18,13.536L1.26,11.015L2.7,12.453L0.18,13.536Z" style="fill-rule:nonzero"/></g><g><path d="M0.54,16.776L1.62,14.255L3.058,15.693L0.54,16.776Z" style="fill-rule:nonzero"/></g></g></g></g><g><g transform="matrix(1,0,0,1,72.8267,246.31)"><g id="schematic7"><path d="M11.15,0.576L11.15,22.176" style="fill:none;fill-rule:nonzero;stroke:#000;stroke-width:1.15px"/><path d="M14.75,7.776L14.75,14.976" style="fill:none;fill-rule:nonzero;stroke:#000;stroke-width:1.15px"/><path d="M18.35,0.576L18.35,22.176" style="fill:none;fill-rule:nonzero;stroke:#000;stroke-width:1.15px"/><path d="M21.95,7.776L21.95,14.976" style="fill:none;fill-rule:nonzero;stroke:#000;stroke-width:1.15px"/><path d="M7.55,11.376L10.43,11.376" style="fill:none;fill-rule:nonzero;stroke:#000;stroke-width:.43px"/><path id="connector0pin7" d="M29.15,11.376L21.95,11.376" style="fill:none;fill-rule:nonzero;stroke:#787878;stroke-width:.7px"/><g><text x="-.695" y="0" style="font-family:'ArialMT','Arial',sans-serif;font-size:2.5px;fill:#8c8c8c" transform="matrix(1,0,0,1,25.5501,10.326)">1</text></g><path id="connector1pin7" d="M0.35,11.376L7.55,11.376" style="fill:none;fill-rule:nonzero;stroke:#787878;stroke-width:.7px"/><g><text x="-.695" y="0" style="font-family:'ArialMT','Arial',sans-serif;font-size:2.5px;fill:#8c8c8c" transform="matrix(1,0,0,1,3.95001,10.326)">2</text></g></g></g></g><g><g transform="matrix(1,0,0,1,217.177,84.8862)"><g id="schematic8"><rect width="56.7" height="128.7" x="14.85" y="14.85" style="fill:#fff;stroke:#000;stroke-width:.9px"/><path id="connector45pin" d="M71.65,28.8L86.05,28.8" style="fill:none;fill-rule:nonzero"/><path id="connector57pin" d="M71.65,28.8L86.05,28.8" style="fill:none;fill-rule:nonzero;stroke:#787878;stroke-width:.7px"/><g><text x="-14.59" y="0" style="font-family:'ArialMT','Arial',sans-serif;font-size:3.5px;fill:#8c8c8c" transform="matrix(1,0,0,1,70.2499,29.4999)">D13/SCK</text></g><rect id="connector57terminal" width=".7" height=".7" x="86.05" y="28.45" style="fill:none"/><path id="connector30pin" d="M71.65,36L86.05,36" style="fill:none;fill-rule:nonzero"/><path id="connector55pin" d="M71.65,36L86.05,36" style="fill:none;fill-rule:nonzero;stroke:#787878;stroke-width:.7px"/><g><text x="-16.338" y="0" style="font-family:'ArialMT','Arial',sans-serif;font-size:3.5px;fill:#8c8c8c" transform="matrix(1,0,0,1,70.2499,36.6999)">D12/MISO</text></g><rect id="connector55terminal" width=".7" height=".7" x="86.05" y="35.65" style="fill:none"/><path id="connector29pin" d="M71.65,43.2L86.05,43.2" style="fill:none;fill-rule:nonzero"/><path id="connector58pin" d="M71.65,43.2L86.05,43.2" style="fill:none;fill-rule:nonzero;stroke:#787878;stroke-width:.7px"/><g><text x="-16.078" y="0" style="font-family:'ArialMT','Arial',sans-serif;font-size:3.5px;fill:#8c8c8c" transform="matrix(1,0,0,1,70.2499,43.8999)">D1<tspan x="-11.864 -9.917" y="0 0">1/</tspan>MOSI</text></g><rect id="connector58terminal" width=".7" height=".7" x="86.05" y="42.85" style="fill:none"/><path id="connector28pin" d="M71.65,50.4L86.05,50.4" style="fill:none;fill-rule:nonzero;stroke:#787878;stroke-width:.7px"/><g><text x="-6.421" y="0" style="font-family:'ArialMT','Arial',sans-serif;font-size:3.5px;fill:#8c8c8c" transform="matrix(1,0,0,1,70.2499,51.0999)">D10</text></g><path id="connector27pin" d="M71.65,57.6L86.05,57.6" style="fill:none;fill-rule:nonzero;stroke:#787878;stroke-width:.7px"/><g><text x="-4.474" y="0" style="font-family:'ArialMT','Arial',sans-serif;font-size:3.5px;fill:#8c8c8c" transform="matrix(1,0,0,1,70.2499,58.2999)">D9</text></g><path id="connector26pin" d="M71.65,64.8L86.05,64.8" style="fill:none;fill-rule:nonzero;stroke:#787878;stroke-width:.7px"/><g><text x="-4.474" y="0" style="font-family:'ArialMT','Arial',sans-serif;font-size:3.5px;fill:#8c8c8c" transform="matrix(1,0,0,1,70.2499,65.4999)">D8</text></g><path id="connector25pin" d="M71.65,72L86.05,72" style="fill:none;fill-rule:nonzero;stroke:#787878;stroke-width:.7px"/><g><text x="-4.474" y="0" style="font-family:'ArialMT','Arial',sans-serif;font-size:3.5px;fill:#8c8c8c" transform="matrix(1,0,0,1,70.2499,72.6999)">D7</text></g><path id="connector24pin" d="M71.65,79.2L86.05,79.2" style="fill:none;fill-rule:nonzero;stroke:#787878;stroke-width:.7px"/><g><text x="-4.474" y="0" style="font-family:'ArialMT','Arial',sans-serif;font-size:3.5px;fill:#8c8c8c" transform="matrix(1,0,0,1,70.2499,79.8999)">D6</text></g><path id="connector23pin" d="M71.65,86.4L86.05,86.4" style="fill:none;fill-rule:nonzero;stroke:#787878;stroke-width:.7px"/><g><text x="-4.474" y="0" style="font-family:'ArialMT','Arial',sans-serif;font-size:3.5px;fill:#8c8c8c" transform="matrix(1,0,0,1,70.2499,87.0999)">D5</text></g><path id="connector22pin" d="M71.65,93.6L86.05,93.6" style="fill:none;fill-rule:nonzero;stroke:#787878;stroke-width:.7px"/><g><text x="-4.474" y="0" style="font-family:'ArialMT','Arial',sans-serif;font-size:3.5px;fill:#8c8c8c" transform="matrix(1,0,0,1,70.2499,94.2999)">D4</text></g><path id="connector21pin" d="M71.65,100.8L86.05,100.8" style="fill:none;fill-rule:nonzero;stroke:#787878;stroke-width:.7px"/><g><text x="-4.474" y="0" style="font-family:'ArialMT','Arial',sans-serif;font-size:3.5px;fill:#8c8c8c" transform="matrix(1,0,0,1,70.2499,101.5)">D3</text></g><path id="connector20pin" d="M71.65,108L86.05,108" style="fill:none;fill-rule:nonzero;stroke:#787878;stroke-width:.7px"/><g><text x="-4.474" y="0" style="font-family:'ArialMT','Arial',sans-serif;font-size:3.5px;fill:#8c8c8c" transform="matrix(1,0,0,1,70.2499,108.7)">D2</text></g><path id="connector16pin" d="M71.65,122.4L86.05,122.4" style="fill:none;fill-rule:nonzero;stroke:#787878;stroke-width:.7px"/><g><text x="-9.919" y="0" style="font-family:'ArialMT','Arial',sans-serif;font-size:3.5px;fill:#8c8c8c" transform="matrix(1,0,0,1,70.2499,123.1)">D1/TX</text></g><path id="connector17pin" d="M71.65,129.6L86.05,129.6" style="fill:none;fill-rule:nonzero;stroke:#787878;stroke-width:.7px"/><g><text x="-10.309" y="0" style="font-family:'ArialMT','Arial',sans-serif;font-size:3.5px;fill:#8c8c8c" transform="matrix(1,0,0,1,70.2499,130.3)">D0/RX</text></g><path id="connector33pin" d="M0.35,28.8L14.75,28.8" style="fill:none;fill-rule:nonzero"/><path id="connector18pin" d="M0.35,28.8L14.75,28.8" style="fill:none;fill-rule:nonzero"/><path id="connector59pin" d="M0.35,28.8L14.75,28.8" style="fill:none;fill-rule:nonzero;stroke:#787878;stroke-width:.7px"/><g><text x="0" y="0" style="font-family:'ArialMT','Arial',sans-serif;font-size:3.5px;fill:#8c8c8c" transform="matrix(1,0,0,1,16.15,29.4999)">RESET</text></g><rect id="connector59terminal" width=".7" height=".7" x="-.35" y="28.45" style="fill:none"/><path id="connector43pin" d="M0.35,36L14.75,36" style="fill:none;fill-rule:nonzero;stroke:#787878;stroke-width:.7px"/><g><text x="0" y="0" style="font-family:'ArialMT','Arial',sans-serif;font-size:3.5px;fill:#8c8c8c" transform="matrix(1,0,0,1,16.15,36.6999)">AREF</text></g><path id="connector42pin" d="M0.35,50.4L14.75,50.4" style="fill:none;fill-rule:nonzero;stroke:#787878;stroke-width:.7px"/><g><text x="0" y="0" style="font-family:'ArialMT','Arial',sans-serif;font-size:3.5px;fill:#8c8c8c" transform="matrix(1,0,0,1,16.15,51.0999)">A0</text></g><path id="connector41pin" d="M0.35,57.6L14.75,57.6" style="fill:none;fill-rule:nonzero;stroke:#787878;stroke-width:.7px"/><g><text x="0" y="0" style="font-family:'ArialMT','Arial',sans-serif;font-size:3.5px;fill:#8c8c8c" transform="matrix(1,0,0,1,16.15,58.2999)">A1</text></g><path id="connector40pin" d="M0.35,64.8L14.75,64.8" style="fill:none;fill-rule:nonzero;stroke:#787878;stroke-width:.7px"/><g><text x="0" y="0" style="font-family:'ArialMT','Arial',sans-serif;font-size:3.5px;fill:#8c8c8c" transform="matrix(1,0,0,1,16.15,65.4999)">A2</text></g><path id="connector39pin" d="M0.35,72L14.75,72" style="fill:none;fill-rule:nonzero;stroke:#787878;stroke-width:.7px"/><g><text x="0" y="0" style="font-family:'ArialMT','Arial',sans-serif;font-size:3.5px;fill:#8c8c8c" transform="matrix(1,0,0,1,16.15,72.6999)">A3</text></g><path id="connector38pin" d="M0.35,79.2L14.75,79.2" style="fill:none;fill-rule:nonzero;stroke:#787878;stroke-width:.7px"/><g><text x="0" y="0" style="font-family:'ArialMT','Arial',sans-serif;font-size:3.5px;fill:#8c8c8c" transform="matrix(1,0,0,1,16.15,79.8999)">A4</text></g><path id="connector37pin" d="M0.35,86.4L14.75,86.4" style="fill:none;fill-rule:nonzero;stroke:#787878;stroke-width:.7px"/><g><text x="0" y="0" style="font-family:'ArialMT','Arial',sans-serif;font-size:3.5px;fill:#8c8c8c" transform="matrix(1,0,0,1,16.15,87.0999)">A5</text></g><path id="connector36pin" d="M0.35,93.6L14.75,93.6" style="fill:none;fill-rule:nonzero;stroke:#787878;stroke-width:.7px"/><g><text x="0" y="0" style="font-family:'ArialMT','Arial',sans-serif;font-size:3.5px;fill:#8c8c8c" transform="matrix(1,0,0,1,16.15,94.2999)">A6</text></g><path id="connector35pin" d="M0.35,100.8L14.75,100.8" style="fill:none;fill-rule:nonzero;stroke:#787878;stroke-width:.7px"/><g><text x="0" y="0" style="font-family:'ArialMT','Arial',sans-serif;font-size:3.5px;fill:#8c8c8c" transform="matrix(1,0,0,1,16.15,101.5)">A7</text></g><path id="connector19pin" d="M43.2,143.65L43.2,158.05" style="fill:none;fill-rule:nonzero"/><path id="connector32pin" d="M43.2,143.65L43.2,158.05" style="fill:none;fill-rule:nonzero"/><path id="connector60pin" d="M43.2,143.65L43.2,158.05" style="fill:none;fill-rule:nonzero;stroke:#787878;stroke-width:.7px"/><g><g><g><g><text x="0" y="0" style="font-family:'ArialMT','Arial',sans-serif;font-size:3.5px;fill:#8c8c8c" transform="matrix(7.04481e-16,-1,1,7.04481e-16,43.8999,142.25)">GND</text></g></g></g></g><rect id="connector60terminal" width=".7" height=".7" x="42.85" y="158.05" style="fill:none"/><path id="connector31pin" d="M28.8,0.35L28.8,14.75" style="fill:none;fill-rule:nonzero;stroke:#787878;stroke-width:.7px"/><g><g><g><g><text x="-5.834" y="0" style="font-family:'ArialMT','Arial',sans-serif;font-size:3.5px;fill:#8c8c8c" transform="matrix(7.04481e-16,-1,1,7.04481e-16,29.4999,16.15)">VIN</text></g></g></g></g><path id="connector34pin" d="M43.2,0.35L43.2,14.75" style="fill:none;fill-rule:nonzero"/><path id="connector56pin" d="M43.2,0.35L43.2,14.75" style="fill:none;fill-rule:nonzero;stroke:#787878;stroke-width:.7px"/><g><g><g><g><text x="-4.281" y="0" style="font-family:'ArialMT','Arial',sans-serif;font-size:3.5px;fill:#8c8c8c" transform="matrix(7.04481e-16,-1,1,7.04481e-16,43.8999,16.15)">5V</text></g></g></g></g><rect id="connector56terminal" width=".7" height=".7" x="42.85" y="-.35" style="fill:none"/><path id="connector44pin" d="M57.6,0.35L57.6,14.75" style="fill:none;fill-rule:nonzero;stroke:#787878;stroke-width:.7px"/><g><g><g><g><text x="-6.228" y="0" style="font-family:'ArialMT','Arial',sans-serif;font-size:3.5px;fill:#8c8c8c" transform="matrix(7.04481e-16,-1,1,7.04481e-16,58.2999,16.15)">3V3</text></g></g></g></g><g id="label"><text x="-7.324" y="0" style="font-family:'ArialMT','Arial',sans-serif;font-size:4.25px" transform="matrix(1,0,0,1,43.6499,72.8498)">Arduino</text></g><g id="label1"><text x="-5.08" y="0" style="font-family:'ArialMT','Arial',sans-serif;font-size:4.25px" transform="matrix(1,0,0,1,43.6499,77.3833)">Nano</text></g><g id="label2"><text x="-8.148" y="0" style="font-family:'ArialMT','Arial',sans-serif;font-size:4.25px" transform="matrix(1,0,0,1,43.6499,81.9167)">(Rev3.0)</text></g></g></g></g><g><g transform="matrix(1,0,0,1,29.6267,246.31)"><g id="schematic9"><path d="M11.15,0.576L11.15,22.176" style="fill:none;fill-rule:nonzero;stroke:#000;stroke-width:1.15px"/><path d="M14.75,7.776L14.75,14.976" style="fill:none;fill-rule:nonzero;stroke:#000;stroke-width:1.15px"/><path d="M18.35,0.576L18.35,22.176" style="fill:none;fill-rule:nonzero;stroke:#000;stroke-width:1.15px"/><path d="M21.95,7.776L21.95,14.976" style="fill:none;fill-rule:nonzero;stroke:#000;stroke-width:1.15px"/><path d="M7.55,11.376L10.43,11.376" style="fill:none;fill-rule:nonzero;stroke:#000;stroke-width:.43px"/><path id="connector0pin8" d="M29.15,11.376L21.95,11.376" style="fill:none;fill-rule:nonzero;stroke:#787878;stroke-width:.7px"/><g><text x="-.695" y="0" style="font-family:'ArialMT','Arial',sans-serif;font-size:2.5px;fill:#8c8c8c" transform="matrix(1,0,0,1,25.5501,10.326)">1</text></g><path id="connector1pin8" d="M0.35,11.376L7.55,11.376" style="fill:none;fill-rule:nonzero;stroke:#787878;stroke-width:.7px"/><g><text x="-.695" y="0" style="font-family:'ArialMT','Arial',sans-serif;font-size:2.5px;fill:#8c8c8c" transform="matrix(1,0,0,1,3.95001,10.326)">2</text></g></g></g></g><g><g><g transform="matrix(-1,0,0,1,159.927,120.536)"><g id="schematic10"><path d="M14.75,7.55L8.99,10.43" style="fill:none;fill-rule:nonzero;stroke:#000;stroke-width:.43px"/><path d="M12.59,19.07L14.75,21.95" style="fill:none;fill-rule:nonzero;stroke:#000;stroke-width:.43px"/><path d="M14.75,21.95L11.15,21.95" style="fill:none;fill-rule:nonzero;stroke:#000;stroke-width:.43px"/><path d="M11.15,21.95L12.59,19.07" style="fill:none;fill-rule:nonzero;stroke:#000;stroke-width:.43px"/><path d="M11.915,20.533L8.423,18.787" style="fill:none;fill-rule:nonzero;stroke:#000;stroke-width:.43px"/><path d="M11.87,21.59L14.03,21.59" style="fill:none;fill-rule:nonzero;stroke:#000;stroke-width:.72px"/><path d="M14.03,21.59L12.59,19.79" style="fill:none;fill-rule:nonzero;stroke:#000;stroke-width:.72px"/><path d="M12.59,19.79L11.87,21.23" style="fill:none;fill-rule:nonzero;stroke:#000;stroke-width:.72px"/><path d="M11.87,21.23L12.95,21.23" style="fill:none;fill-rule:nonzero;stroke:#000;stroke-width:.72px"/><path d="M12.95,21.23L12.59,20.51" style="fill:none;fill-rule:nonzero;stroke:#000;stroke-width:.72px"/><rect width="2.16" height="14.4" x="6.83" y="7.55"/><path id="connector0pin9" d="M0.35,14.75L7.55,14.75" style="fill:none;fill-rule:nonzero;stroke:#787878;stroke-width:.7px"/><g><text x="-.695" y="0" style="font-family:'ArialMT','Arial',sans-serif;font-size:2.5px;fill:#8c8c8c" transform="matrix(1,0,0,1,3.94999,13.7001)">1</text></g><path id="connector2pin" d="M14.75,29.15L14.75,21.95" style="fill:none;fill-rule:nonzero;stroke:#787878;stroke-width:.7px"/><g><g><g><g><text x="-.695" y="0" style="font-family:'ArialMT','Arial',sans-serif;font-size:2.5px;fill:#8c8c8c" transform="matrix(7.04481e-16,-1,1,7.04481e-16,13.7,25.5501)">2</text></g></g></g></g><path id="connector1pin9" d="M14.75,0.35L14.75,7.55" style="fill:none;fill-rule:nonzero;stroke:#787878;stroke-width:.7px"/><g><g><g><g><text x="-.695" y="0" style="font-family:'ArialMT','Arial',sans-serif;font-size:2.5px;fill:#8c8c8c" transform="matrix(7.04481e-16,-1,1,7.04481e-16,13.7,3.95001)">3</text></g></g></g></g></g></g></g></g><g><g transform="matrix(1,0,0,1,313.233,44.9526)"><g id="schematic11"><path d="M4.741,9.333L4.741,7.534" style="fill:none;fill-rule:nonzero;stroke:#000;stroke-width:.7px"/><path d="M4.741,21.934L1.142,9.333" style="fill:none;fill-rule:nonzero;stroke:#000;stroke-width:.7px"/><circle cx="4.741" cy="21.934" r=".36" style="fill:none;stroke:#000;stroke-width:.7px;stroke-linecap:butt"/><circle cx="4.741" cy="7.534" r=".36" style="fill:none;stroke:#000;stroke-width:.7px;stroke-linecap:butt"/><path id="connector0pin10" d="M4.741,29.135L4.741,21.934" style="fill:none;fill-rule:nonzero;stroke:#555;stroke-width:.7px"/><path id="connector1pin10" d="M4.741,0.333L4.741,7.534" style="fill:none;fill-rule:nonzero;stroke:#555;stroke-width:.7px"/></g></g></g><g><g transform="matrix(1,0,0,1,327.633,44.9526)"><g id="schematic12"><path d="M4.741,9.333L4.741,7.534" style="fill:none;fill-rule:nonzero;stroke:#000;stroke-width:.7px"/><path d="M4.741,21.934L1.142,9.333" style="fill:none;fill-rule:nonzero;stroke:#000;stroke-width:.7px"/><circle cx="4.741" cy="21.934" r=".36" style="fill:none;stroke:#000;stroke-width:.7px;stroke-linecap:butt"/><circle cx="4.741" cy="7.534" r=".36" style="fill:none;stroke:#000;stroke-width:.7px;stroke-linecap:butt"/><path id="connector0pin11" d="M4.741,29.135L4.741,21.934" style="fill:none;fill-rule:nonzero;stroke:#555;stroke-width:.7px"/><path id="connector1pin11" d="M4.741,0.333L4.741,7.534" style="fill:none;fill-rule:nonzero;stroke:#555;stroke-width:.7px"/></g></g></g><g><g transform="matrix(1,0,0,1,342.033,44.9526)"><g id="schematic13"><path d="M4.741,9.333L4.741,7.534" style="fill:none;fill-rule:nonzero;stroke:#000;stroke-width:.7px"/><path d="M4.741,21.934L1.142,9.333" style="fill:none;fill-rule:nonzero;stroke:#000;stroke-width:.7px"/><circle cx="4.741" cy="21.934" r=".36" style="fill:none;stroke:#000;stroke-width:.7px;stroke-linecap:butt"/><circle cx="4.741" cy="7.534" r=".36" style="fill:none;stroke:#000;stroke-width:.7px;stroke-linecap:butt"/><path id="connector0pin12" d="M4.741,29.135L4.741,21.934" style="fill:none;fill-rule:nonzero;stroke:#555;stroke-width:.7px"/><path id="connector1pin12" d="M4.741,0.333L4.741,7.534" style="fill:none;fill-rule:nonzero;stroke:#555;stroke-width:.7px"/></g></g></g><g><g transform="matrix(1,0,0,1,252.827,59.3259)"><g id="schematic14"><path d="M11.15,3.96L18.35,0.36" style="fill:none;fill-rule:nonzero;stroke:#000;stroke-width:.72px"/><path d="M18.35,3.96L21.95,3.96" style="fill:none;fill-rule:nonzero;stroke:#000;stroke-width:.43px"/><path d="M7.55,3.96L10.142,3.96" style="fill:none;fill-rule:nonzero;stroke:#000;stroke-width:.43px"/><circle cx="18.35" cy="3.96" r="1.018" style="fill:none;stroke:#000;stroke-width:.58px;stroke-linecap:butt"/><circle cx="11.15" cy="3.96" r="1.018" style="fill:none;stroke:#000;stroke-width:.58px;stroke-linecap:butt"/><path id="connector3pin" d="M0.35,3.96L7.55,3.96" style="fill:none;fill-rule:nonzero;stroke:#787878;stroke-width:.7px"/><g><text x="-.695" y="0" style="font-family:'ArialMT','Arial',sans-serif;font-size:2.5px;fill:#8c8c8c" transform="matrix(1,0,0,1,3.95001,2.90999)">4</text></g><path id="connector2pin1" d="M29.15,3.96L21.95,3.96" style="fill:none;fill-rule:nonzero;stroke:#787878;stroke-width:.7px"/><g><text x="-.695" y="0" style="font-family:'ArialMT','Arial',sans-serif;font-size:2.5px;fill:#8c8c8c" transform="matrix(1,0,0,1,25.5501,2.90999)">3</text></g></g></g></g><g><g transform="matrix(1,0,0,1,353.625,153.79)"><g id="schematic15"><path d="M7.55,3.096L8.63,0.216" style="fill:none;fill-rule:nonzero;stroke:#000;stroke-width:.43px"/><path d="M8.63,0.216L10.43,5.976" style="fill:none;fill-rule:nonzero;stroke:#000;stroke-width:.43px"/><path d="M10.43,5.976L12.23,0.216" style="fill:none;fill-rule:nonzero;stroke:#000;stroke-width:.43px"/><path d="M12.23,0.216L14.03,5.976" style="fill:none;fill-rule:nonzero;stroke:#000;stroke-width:.43px"/><path d="M14.03,5.976L15.83,0.216" style="fill:none;fill-rule:nonzero;stroke:#000;stroke-width:.43px"/><path d="M15.83,0.216L17.63,5.976" style="fill:none;fill-rule:nonzero;stroke:#000;stroke-width:.43px"/><path d="M17.63,5.976L19.43,0.216" style="fill:none;fill-rule:nonzero;stroke:#000;stroke-width:.43px"/><path d="M19.43,0.216L21.23,5.976" style="fill:none;fill-rule:nonzero;stroke:#000;stroke-width:.43px"/><path d="M21.23,5.976L21.95,3.096" style="fill:none;fill-rule:nonzero;stroke:#000;stroke-width:.43px"/><path id="connector1pin13" d="M29.15,3.096L21.95,3.096" style="fill:none;fill-rule:nonzero;stroke:#787878;stroke-width:.7px"/><g><text x="-.695" y="0" style="font-family:'ArialMT','Arial',sans-serif;font-size:2.5px;fill:#8c8c8c" transform="matrix(1,0,0,1,25.5501,2.046)">2</text></g><path id="connector0pin13" d="M0.35,3.096L7.55,3.096" style="fill:none;fill-rule:nonzero;stroke:#787878;stroke-width:.7px"/><g><text x="-.695" y="0" style="font-family:'ArialMT','Arial',sans-serif;font-size:2.5px;fill:#8c8c8c" transform="matrix(1,0,0,1,3.95001,2.046)">1</text></g></g></g></g><g><g transform="matrix(1,0,0,1,267.227,9.78992)"><g id="schematic16"><path d="M7.55,3.096L8.63,0.216" style="fill:none;fill-rule:nonzero;stroke:#000;stroke-width:.43px"/><path d="M8.63,0.216L10.43,5.976" style="fill:none;fill-rule:nonzero;stroke:#000;stroke-width:.43px"/><path d="M10.43,5.976L12.23,0.216" style="fill:none;fill-rule:nonzero;stroke:#000;stroke-width:.43px"/><path d="M12.23,0.216L14.03,5.976" style="fill:none;fill-rule:nonzero;stroke:#000;stroke-width:.43px"/><path d="M14.03,5.976L15.83,0.216" style="fill:none;fill-rule:nonzero;stroke:#000;stroke-width:.43px"/><path d="M15.83,0.216L17.63,5.976" style="fill:none;fill-rule:nonzero;stroke:#000;stroke-width:.43px"/><path d="M17.63,5.976L19.43,0.216" style="fill:none;fill-rule:nonzero;stroke:#000;stroke-width:.43px"/><path d="M19.43,0.216L21.23,5.976" style="fill:none;fill-rule:nonzero;stroke:#000;stroke-width:.43px"/><path d="M21.23,5.976L21.95,3.096" style="fill:none;fill-rule:nonzero;stroke:#000;stroke-width:.43px"/><path id="connector1pin14" d="M29.15,3.096L21.95,3.096" style="fill:none;fill-rule:nonzero;stroke:#787878;stroke-width:.7px"/><g><text x="-.695" y="0" style="font-family:'ArialMT','Arial',sans-serif;font-size:2.5px;fill:#8c8c8c" transform="matrix(1,0,0,1,25.5501,2.046)">2</text></g><path id="connector0pin14" d="M0.35,3.096L7.55,3.096" style="fill:none;fill-rule:nonzero;stroke:#787878;stroke-width:.7px"/><g><text x="-.695" y="0" style="font-family:'ArialMT','Arial',sans-serif;font-size:2.5px;fill:#8c8c8c" transform="matrix(1,0,0,1,3.95001,2.046)">1</text></g></g></g></g><g><g transform="matrix(1,0,0,1,353.625,168.19)"><g id="schematic17"><path d="M7.55,3.096L8.63,0.216" style="fill:none;fill-rule:nonzero;stroke:#000;stroke-width:.43px"/><path d="M8.63,0.216L10.43,5.976" style="fill:none;fill-rule:nonzero;stroke:#000;stroke-width:.43px"/><path d="M10.43,5.976L12.23,0.216" style="fill:none;fill-rule:nonzero;stroke:#000;stroke-width:.43px"/><path d="M12.23,0.216L14.03,5.976" style="fill:none;fill-rule:nonzero;stroke:#000;stroke-width:.43px"/><path d="M14.03,5.976L15.83,0.216" style="fill:none;fill-rule:nonzero;stroke:#000;stroke-width:.43px"/><path d="M15.83,0.216L17.63,5.976" style="fill:none;fill-rule:nonzero;stroke:#000;stroke-width:.43px"/><path d="M17.63,5.976L19.43,0.216" style="fill:none;fill-rule:nonzero;stroke:#000;stroke-width:.43px"/><path d="M19.43,0.216L21.23,5.976" style="fill:none;fill-rule:nonzero;stroke:#000;stroke-width:.43px"/><path d="M21.23,5.976L21.95,3.096" style="fill:none;fill-rule:nonzero;stroke:#000;stroke-width:.43px"/><path id="connector1pin15" d="M29.15,3.096L21.95,3.096" style="fill:none;fill-rule:nonzero;stroke:#787878;stroke-width:.7px"/><g><text x="-.695" y="0" style="font-family:'ArialMT','Arial',sans-serif;font-size:2.5px;fill:#8c8c8c" transform="matrix(1,0,0,1,25.5501,2.046)">2</text></g><path id="connector0pin15" d="M0.35,3.096L7.55,3.096" style="fill:none;fill-rule:nonzero;stroke:#787878;stroke-width:.7px"/><g><text x="-.695" y="0" style="font-family:'ArialMT','Arial',sans-serif;font-size:2.5px;fill:#8c8c8c" transform="matrix(1,0,0,1,3.95001,2.046)">1</text></g></g></g></g><g><g transform="matrix(1,0,0,1,353.625,182.59)"><g id="schematic18"><path d="M7.55,3.096L8.63,0.216" style="fill:none;fill-rule:nonzero;stroke:#000;stroke-width:.43px"/><path d="M8.63,0.216L10.43,5.976" style="fill:none;fill-rule:nonzero;stroke:#000;stroke-width:.43px"/><path d="M10.43,5.976L12.23,0.216" style="fill:none;fill-rule:nonzero;stroke:#000;stroke-width:.43px"/><path d="M12.23,0.216L14.03,5.976" style="fill:none;fill-rule:nonzero;stroke:#000;stroke-width:.43px"/><path d="M14.03,5.976L15.83,0.216" style="fill:none;fill-rule:nonzero;stroke:#000;stroke-width:.43px"/><path d="M15.83,0.216L17.63,5.976" style="fill:none;fill-rule:nonzero;stroke:#000;stroke-width:.43px"/><path d="M17.63,5.976L19.43,0.216" style="fill:none;fill-rule:nonzero;stroke:#000;stroke-width:.43px"/><path d="M19.43,0.216L21.23,5.976" style="fill:none;fill-rule:nonzero;stroke:#000;stroke-width:.43px"/><path d="M21.23,5.976L21.95,3.096" style="fill:none;fill-rule:nonzero;stroke:#000;stroke-width:.43px"/><path id="connector1pin16" d="M29.15,3.096L21.95,3.096" style="fill:none;fill-rule:nonzero;stroke:#787878;stroke-width:.7px"/><g><text x="-.695" y="0" style="font-family:'ArialMT','Arial',sans-serif;font-size:2.5px;fill:#8c8c8c" transform="matrix(1,0,0,1,25.5501,2.046)">2</text></g><path id="connector0pin16" d="M0.35,3.096L7.55,3.096" style="fill:none;fill-rule:nonzero;stroke:#787878;stroke-width:.7px"/><g><text x="-.695" y="0" style="font-family:'ArialMT','Arial',sans-serif;font-size:2.5px;fill:#8c8c8c" transform="matrix(1,0,0,1,3.95001,2.046)">1</text></g></g></g></g><g><path d="M22.777,63.287L44.377,63.287" style="fill:none;fill-rule:nonzero;stroke:#ab58a2;stroke-width:.4px"/></g><g><path d="M382.625,257.736L260.251,257.754" style="fill:none;fill-rule:nonzero;stroke:#404040;stroke-width:.7px"/></g><circle cx="382.625" cy="257.736" r=".72"/><circle cx="260.251" cy="257.754" r=".72"/><g><path d="M382.777,185.686L382.629,257.735" style="fill:none;fill-rule:nonzero;stroke:#404040;stroke-width:.7px"/></g><circle cx="382.777" cy="185.686" r="1.44"/><circle cx="382.629" cy="257.735" r=".72"/><g><path d="M145.222,257.64L101.977,257.686" style="fill:none;fill-rule:nonzero;stroke:#404040;stroke-width:.7px"/></g><circle cx="145.222" cy="257.64" r=".72"/><circle cx="101.977" cy="257.686" r="1.44"/><g><path d="M145.177,149.686L145.221,257.64" style="fill:none;fill-rule:nonzero;stroke:#404040;stroke-width:.7px"/></g><circle cx="145.221" cy="257.64" r=".72"/><g><path d="M145.222,257.64L101.977,257.686" style="fill:none;fill-rule:nonzero;stroke:#404040;stroke-width:.7px"/></g><circle cx="145.222" cy="257.64" r=".72"/><circle cx="101.977" cy="257.686" r="1.44"/><g><path d="M231.577,257.686L260.319,257.82" style="fill:none;fill-rule:nonzero;stroke:#404040;stroke-width:.7px"/></g><circle cx="231.577" cy="257.686" r="1.44"/><circle cx="260.319" cy="257.82" r=".72"/><g><path d="M145.213,293.716L145.222,257.64" style="fill:none;fill-rule:nonzero;stroke:#404040;stroke-width:.7px"/></g><circle cx="145.213" cy="293.716" r=".72"/><circle cx="145.222" cy="257.64" r=".72"/><g><path d="M260.428,293.716L145.213,293.716" style="fill:none;fill-rule:nonzero;stroke:#404040;stroke-width:.7px"/></g><circle cx="260.428" cy="293.716" r=".72"/><circle cx="145.213" cy="293.716" r=".72"/><g><path d="M260.319,257.82L260.428,293.716" style="fill:none;fill-rule:nonzero;stroke:#404040;stroke-width:.7px"/></g><circle cx="260.319" cy="257.82" r=".72"/><circle cx="260.428" cy="293.716" r=".72"/><g><path d="M289.215,48.946L289.215,63.286" style="fill:none;fill-rule:nonzero;stroke:#404040;stroke-width:.7px"/></g><circle cx="289.215" cy="48.946" r=".72"/><circle cx="289.215" cy="63.286" r=".72"/><g><path d="M289.215,63.286L281.977,63.286" style="fill:none;fill-rule:nonzero;stroke:#404040;stroke-width:.7px"/></g><circle cx="289.215" cy="63.286" r=".72"/><g><path d="M181.483,49.038L289.215,48.946" style="fill:none;fill-rule:nonzero;stroke:#404040;stroke-width:.7px"/></g><circle cx="181.483" cy="49.038" r=".72"/><circle cx="289.215" cy="48.946" r=".72"/><g><path d="M181.107,257.774L181.483,49.038" style="fill:none;fill-rule:nonzero;stroke:#404040;stroke-width:.7px"/></g><circle cx="181.107" cy="257.774" r=".72"/><circle cx="181.483" cy="49.038" r=".72"/><g><path d="M202.777,257.686L181.107,257.774" style="fill:none;fill-rule:nonzero;stroke:#404040;stroke-width:.7px"/></g><circle cx="181.107" cy="257.774" r=".72"/><g><path d="M260.254,257.754L260.377,243.286" style="fill:none;fill-rule:nonzero;stroke:#404040;stroke-width:.7px"/></g><circle cx="260.254" cy="257.754" r=".72"/><g><path d="M231.577,257.686L260.254,257.754" style="fill:none;fill-rule:nonzero;stroke:#404040;stroke-width:.7px"/></g><circle cx="231.577" cy="257.686" r="1.44"/><circle cx="260.254" cy="257.754" r="1.44"/><g><path d="M245.907,63.286L245.977,84.886" style="fill:none;fill-rule:nonzero;stroke:#404040;stroke-width:.7px"/></g><circle cx="245.907" cy="63.286" r=".72"/><g><path d="M253.177,63.286L245.906,63.286" style="fill:none;fill-rule:nonzero;stroke:#404040;stroke-width:.7px"/></g><circle cx="245.906" cy="63.286" r=".72"/><g><path d="M317.953,77.753L317.971,74.087" style="fill:none;fill-rule:nonzero;stroke:#404040;stroke-width:.7px"/></g><circle cx="317.953" cy="77.753" r=".72"/><circle cx="317.971" cy="74.087" r="1.44"/><g><path d="M260.265,77.57L317.955,77.753" style="fill:none;fill-rule:nonzero;stroke:#404040;stroke-width:.7px"/></g><circle cx="260.265" cy="77.57" r=".72"/><circle cx="317.955" cy="77.753" r=".72"/><g><path d="M260.377,84.886L260.265,77.57" style="fill:none;fill-rule:nonzero;stroke:#404040;stroke-width:.7px"/></g><circle cx="260.265" cy="77.57" r=".72"/><g><path d="M353.873,185.788L353.981,185.686" style="fill:none;fill-rule:nonzero;stroke:#404040;stroke-width:.7px"/></g><circle cx="353.873" cy="185.788" r=".72"/><g><path d="M303.577,185.686L353.869,185.788" style="fill:none;fill-rule:nonzero;stroke:#404040;stroke-width:.7px"/></g><circle cx="353.869" cy="185.788" r=".72"/><g><path d="M382.793,171.204L382.777,171.286" style="fill:none;fill-rule:nonzero;stroke:#404040;stroke-width:.7px"/></g><circle cx="382.793" cy="171.204" r=".72"/><circle cx="382.777" cy="171.286" r="1.44"/><g><path d="M382.681,156.809L382.795,171.205" style="fill:none;fill-rule:nonzero;stroke:#404040;stroke-width:.7px"/></g><circle cx="382.681" cy="156.809" r=".72"/><circle cx="382.795" cy="171.205" r=".72"/><g><path d="M382.793,157.003L382.676,156.809" style="fill:none;fill-rule:nonzero;stroke:#404040;stroke-width:.7px"/></g><circle cx="382.793" cy="157.003" r=".72"/><circle cx="382.676" cy="156.809" r=".72"/><g><path d="M382.777,156.886L382.796,157.003" style="fill:none;fill-rule:nonzero;stroke:#404040;stroke-width:.7px"/></g><circle cx="382.796" cy="157.003" r=".72"/><g><path d="M382.793,171.204L382.777,171.286" style="fill:none;fill-rule:nonzero;stroke:#404040;stroke-width:.7px"/></g><circle cx="382.793" cy="171.204" r=".72"/><circle cx="382.777" cy="171.286" r="1.44"/><g><path d="M382.793,171.204" style="fill-rule:nonzero;stroke:#404040;stroke-width:.7px"/></g><circle cx="382.793" cy="171.204" r=".72"/><circle cx="382.793" cy="171.204" r=".72"/><g><path d="M382.777,185.686L382.795,171.204" style="fill:none;fill-rule:nonzero;stroke:#404040;stroke-width:.7px"/></g><circle cx="382.777" cy="185.686" r="1.44"/><circle cx="382.795" cy="171.204" r=".72"/><g><path d="M354.041,178.495L353.974,171.286" style="fill:none;fill-rule:nonzero;stroke:#404040;stroke-width:.7px"/></g><circle cx="354.041" cy="178.495" r=".72"/><g><path d="M353.873,178.496L354.048,178.495" style="fill:none;fill-rule:nonzero;stroke:#404040;stroke-width:.7px"/></g><circle cx="353.873" cy="178.496" r=".72"/><circle cx="354.048" cy="178.495" r=".72"/><g><path d="M353.873,178.496" style="fill-rule:nonzero;stroke:#404040;stroke-width:.7px"/></g><circle cx="353.873" cy="178.496" r=".72"/><circle cx="353.873" cy="178.496" r=".72"/><g><path d="M303.577,178.486L353.869,178.496" style="fill:none;fill-rule:nonzero;stroke:#404040;stroke-width:.7px"/></g><circle cx="303.577" cy="178.486" r="1.44"/><circle cx="353.869" cy="178.496" r=".72"/><g><path d="M317.953,185.599L303.574,185.686" style="fill:none;fill-rule:nonzero;stroke:#404040;stroke-width:.7px"/></g><circle cx="317.953" cy="185.599" r=".72"/><circle cx="303.574" cy="185.686" r=".72"/><g><path d="M317.985,185.644L317.955,185.599" style="fill:none;fill-rule:nonzero;stroke:#404040;stroke-width:.7px"/></g><circle cx="317.985" cy="185.644" r=".72"/><circle cx="317.955" cy="185.599" r=".72"/><g><path d="M317.985,92.088L317.985,185.644" style="fill:none;fill-rule:nonzero;stroke:#404040;stroke-width:.7px"/></g><circle cx="317.985" cy="92.088" r=".72"/><circle cx="317.985" cy="185.644" r=".72"/><g><path d="M375.593,92.088L317.989,92.088" style="fill:none;fill-rule:nonzero;stroke:#404040;stroke-width:.7px"/></g><circle cx="375.593" cy="92.088" r=".72"/><circle cx="317.989" cy="92.088" r=".72"/><g><path d="M375.593,27.334L375.593,92.088" style="fill:none;fill-rule:nonzero;stroke:#404040;stroke-width:.7px"/></g><circle cx="375.593" cy="27.334" r=".72"/><circle cx="375.593" cy="92.088" r=".72"/><g><path d="M317.953,27.25L375.588,27.334" style="fill:none;fill-rule:nonzero;stroke:#404040;stroke-width:.7px"/></g><circle cx="317.953" cy="27.25" r=".72"/><circle cx="375.588" cy="27.334" r=".72"/><g><path d="M317.977,48.886L317.959,27.25" style="fill:none;fill-rule:nonzero;stroke:#404040;stroke-width:.7px"/></g><circle cx="317.959" cy="27.25" r=".72"/><g><path d="M325.137,178.495L303.579,178.486" style="fill:none;fill-rule:nonzero;stroke:#404040;stroke-width:.7px"/></g><circle cx="325.137" cy="178.495" r=".72"/><circle cx="303.579" cy="178.486" r="1.44"/><g><path d="M325.137,178.495" style="fill-rule:nonzero;stroke:#404040;stroke-width:.7px"/></g><circle cx="325.137" cy="178.495" r=".72"/><circle cx="325.137" cy="178.495" r=".72"/><g><path d="M368.441,99.238L325.136,99.238" style="fill:none;fill-rule:nonzero;stroke:#404040;stroke-width:.7px"/></g><circle cx="368.441" cy="99.238" r=".72"/><circle cx="325.136" cy="99.238" r=".72"/><g><path d="M368.441,99.238" style="fill-rule:nonzero;stroke:#404040;stroke-width:.7px"/></g><circle cx="368.441" cy="99.238" r=".72"/><circle cx="368.441" cy="99.238" r=".72"/><g><path d="M368.441,34.484L368.441,99.238" style="fill:none;fill-rule:nonzero;stroke:#404040;stroke-width:.7px"/></g><circle cx="368.441" cy="34.484" r=".72"/><circle cx="368.441" cy="99.238" r=".72"/><g><path d="M332.361,34.568L368.437,34.484" style="fill:none;fill-rule:nonzero;stroke:#404040;stroke-width:.7px"/></g><circle cx="332.361" cy="34.568" r=".72"/><circle cx="368.437" cy="34.484" r=".72"/><g><path d="M325.137,99.238L325.137,178.495" style="fill:none;fill-rule:nonzero;stroke:#404040;stroke-width:.7px"/></g><circle cx="325.137" cy="99.238" r=".72"/><circle cx="325.137" cy="178.495" r=".72"/><g><path d="M332.377,48.886L332.364,34.568" style="fill:none;fill-rule:nonzero;stroke:#404040;stroke-width:.7px"/></g><circle cx="332.364" cy="34.568" r=".72"/><g><path d="M332.281,106.387L332.281,171.345" style="fill:none;fill-rule:nonzero;stroke:#404040;stroke-width:.7px"/></g><circle cx="332.281" cy="106.387" r=".72"/><circle cx="332.281" cy="171.345" r=".72"/><g><path d="M332.281,171.345L303.573,171.286" style="fill:none;fill-rule:nonzero;stroke:#404040;stroke-width:.7px"/></g><circle cx="332.281" cy="171.345" r=".72"/><circle cx="303.573" cy="171.286" r="1.44"/><g><path d="M332.281,106.387" style="fill-rule:nonzero;stroke:#404040;stroke-width:.7px"/></g><circle cx="332.281" cy="106.387" r=".72"/><circle cx="332.281" cy="106.387" r=".72"/><g><path d="M361.089,106.387" style="fill-rule:nonzero;stroke:#404040;stroke-width:.7px"/></g><circle cx="361.089" cy="106.387" r=".72"/><circle cx="361.089" cy="106.387" r=".72"/><g><path d="M361.089,106.387L332.287,106.387" style="fill:none;fill-rule:nonzero;stroke:#404040;stroke-width:.7px"/></g><circle cx="361.089" cy="106.387" r=".72"/><circle cx="332.287" cy="106.387" r=".72"/><g><path d="M361.089,41.633L361.089,106.387" style="fill:none;fill-rule:nonzero;stroke:#404040;stroke-width:.7px"/></g><circle cx="361.089" cy="41.633" r=".72"/><circle cx="361.089" cy="106.387" r=".72"/><g><path d="M346.721,41.747L361.085,41.633" style="fill:none;fill-rule:nonzero;stroke:#404040;stroke-width:.7px"/></g><circle cx="346.721" cy="41.747" r=".72"/><circle cx="361.085" cy="41.633" r=".72"/><g><path d="M346.777,48.886L346.724,41.747" style="fill:none;fill-rule:nonzero;stroke:#404040;stroke-width:.7px"/></g><circle cx="346.724" cy="41.747" r=".72"/><g><path d="M346.817,171.204L303.573,171.286" style="fill:none;fill-rule:nonzero;stroke:#404040;stroke-width:.7px"/></g><circle cx="346.817" cy="171.204" r=".72"/><circle cx="303.573" cy="171.286" r="1.44"/><g><path d="M346.817,156.864L346.817,171.204" style="fill:none;fill-rule:nonzero;stroke:#404040;stroke-width:.7px"/></g><circle cx="346.817" cy="156.864" r=".72"/><circle cx="346.817" cy="171.204" r=".72"/><g><path d="M353.977,156.886L346.821,156.864" style="fill:none;fill-rule:nonzero;stroke:#404040;stroke-width:.7px"/></g><circle cx="346.821" cy="156.864" r=".72"/><g><path d="M332.377,74.087L346.777,74.087" style="fill:none;fill-rule:nonzero;stroke:#404040;stroke-width:.7px"/></g><circle cx="332.377" cy="74.087" r="1.44"/><g><path d="M332.377,74.087L317.974,74.087" style="fill:none;fill-rule:nonzero;stroke:#404040;stroke-width:.7px"/></g><circle cx="332.377" cy="74.087" r="1.44"/><circle cx="317.974" cy="74.087" r="1.44"/><g><path d="M166.877,12.774L267.577,12.886" style="fill:none;fill-rule:nonzero;stroke:#404040;stroke-width:.7px"/></g><circle cx="166.877" cy="12.774" r=".72"/><g><path d="M166.877,12.774" style="fill-rule:nonzero;stroke:#404040;stroke-width:.7px"/></g><circle cx="166.877" cy="12.774" r=".72"/><circle cx="166.877" cy="12.774" r=".72"/><g><path d="M166.877,12.774" style="fill-rule:nonzero;stroke:#404040;stroke-width:.7px"/></g><circle cx="166.877" cy="12.774" r=".72"/><circle cx="166.877" cy="12.774" r=".72"/><g><path d="M166.877,12.774" style="fill-rule:nonzero;stroke:#404040;stroke-width:.7px"/></g><circle cx="166.877" cy="12.774" r=".72"/><circle cx="166.877" cy="12.774" r=".72"/><g><path d="M166.695,135.373L166.877,12.774" style="fill:none;fill-rule:nonzero;stroke:#404040;stroke-width:.7px"/></g><circle cx="166.695" cy="135.373" r=".72"/><circle cx="166.877" cy="12.774" r=".72"/><g><path d="M159.577,135.286L166.695,135.373" style="fill:none;fill-rule:nonzero;stroke:#404040;stroke-width:.7px"/></g><circle cx="166.695" cy="135.373" r=".72"/><g><path d="M145.239,106.353L145.177,120.886" style="fill:none;fill-rule:nonzero;stroke:#404040;stroke-width:.7px"/></g><circle cx="145.239" cy="106.353" r=".72"/><g><path d="M22.661,106.424" style="fill-rule:nonzero;stroke:#404040;stroke-width:.7px"/></g><circle cx="22.661" cy="106.424" r=".72"/><circle cx="22.661" cy="106.424" r=".72"/><g><path d="M22.661,106.424L145.237,106.424" style="fill:none;fill-rule:nonzero;stroke:#404040;stroke-width:.7px"/></g><circle cx="22.661" cy="106.424" r=".72"/><circle cx="145.237" cy="106.424" r=".72"/><g><path d="M145.237,106.424L145.24,106.353" style="fill:none;fill-rule:nonzero;stroke:#404040;stroke-width:.7px"/></g><circle cx="145.237" cy="106.424" r=".72"/><circle cx="145.24" cy="106.353" r=".72"/><g><path d="M22.777,63.287L22.661,106.424" style="fill:none;fill-rule:nonzero;stroke:#404040;stroke-width:.7px"/></g><circle cx="22.661" cy="106.424" r=".72"/><g><path d="M87.628,257.733L58.777,257.686" style="fill:none;fill-rule:nonzero;stroke:#404040;stroke-width:.7px"/></g><circle cx="87.628" cy="257.733" r=".72"/><g><path d="M73.177,257.686L87.628,257.733" style="fill:none;fill-rule:nonzero;stroke:#404040;stroke-width:.7px"/></g><circle cx="87.628" cy="257.733" r=".72"/><g><path d="M1.051,257.664L1.104,41.6" style="fill:none;fill-rule:nonzero;stroke:#404040;stroke-width:.7px"/></g><circle cx="1.051" cy="257.664" r=".72"/><circle cx="1.104" cy="41.6" r=".72"/><g><path d="M1.104,41.6L101.977,41.686" style="fill:none;fill-rule:nonzero;stroke:#404040;stroke-width:.7px"/></g><circle cx="1.104" cy="41.6" r=".72"/><circle cx="101.977" cy="41.686" r="1.44"/><g><path d="M1.104,41.6" style="fill-rule:nonzero;stroke:#404040;stroke-width:.7px"/></g><circle cx="1.104" cy="41.6" r=".72"/><circle cx="1.104" cy="41.6" r=".72"/><g><path d="M37.235,257.707L1.051,257.664" style="fill:none;fill-rule:nonzero;stroke:#404040;stroke-width:.7px"/></g><circle cx="37.235" cy="257.707" r=".72"/><circle cx="1.051" cy="257.664" r=".72"/><g><path d="M29.977,257.686L37.235,257.707" style="fill:none;fill-rule:nonzero;stroke:#404040;stroke-width:.7px"/></g><circle cx="37.235" cy="257.707" r=".72"/><g><path d="M123.577,41.686L145.177,41.686" style="fill:none;fill-rule:nonzero;stroke:#404040;stroke-width:.7px"/></g><circle cx="123.577" cy="41.686" r="1.44"/><g><path d="M101.991,63.286L123.577,63.287" style="fill:none;fill-rule:nonzero;stroke:#404040;stroke-width:.7px"/></g><circle cx="101.991" cy="63.286" r=".72"/><circle cx="123.577" cy="63.287" r="1.44"/><g><path d="M145.177,63.287L101.992,63.286" style="fill:none;fill-rule:nonzero;stroke:#404040;stroke-width:.7px"/></g><circle cx="101.992" cy="63.286" r=".72"/><g><path d="M44.494,41.717L80.377,41.686" style="fill:none;fill-rule:nonzero;stroke:#404040;stroke-width:.7px"/></g><circle cx="44.494" cy="41.717" r=".72"/><circle cx="80.377" cy="41.686" r="1.44"/><g><path d="M101.977,41.686L44.494,41.717" style="fill:none;fill-rule:nonzero;stroke:#404040;stroke-width:.7px"/></g><circle cx="101.977" cy="41.686" r="1.44"/><circle cx="44.494" cy="41.717" r=".72"/><g><path d="M22.791,41.6L80.377,41.686" style="fill:none;fill-rule:nonzero;stroke:#404040;stroke-width:.7px"/></g><circle cx="22.791" cy="41.6" r=".72"/><circle cx="80.377" cy="41.686" r="1.44"/><g><path d="M1.104,41.6L22.791,41.6" style="fill:none;fill-rule:nonzero;stroke:#404040;stroke-width:.7px"/></g><circle cx="1.104" cy="41.6" r=".72"/><circle cx="22.791" cy="41.6" r=".72"/><g><path d="M44.377,41.686L1.105,41.6" style="fill:none;fill-rule:nonzero;stroke:#404040;stroke-width:.7px"/></g><circle cx="44.377" cy="41.686" r="1.44"/><circle cx="1.105" cy="41.6" r=".72"/><g><path d="M22.662,41.717L44.377,41.686" style="fill:none;fill-rule:nonzero;stroke:#404040;stroke-width:.7px"/></g><circle cx="22.662" cy="41.717" r=".72"/><circle cx="44.377" cy="41.686" r="1.44"/><g><path d="M1.104,41.6L22.662,41.717" style="fill:none;fill-rule:nonzero;stroke:#404040;stroke-width:.7px"/></g><circle cx="1.104" cy="41.6" r=".72"/><circle cx="22.662" cy="41.717" r=".72"/><g><path d="M1.103,41.6L1.104,41.6" style="fill:none;fill-rule:nonzero;stroke:#404040;stroke-width:.7px"/></g><circle cx="1.103" cy="41.6" r=".72"/><circle cx="1.104" cy="41.6" r=".72"/><g><path d="M1.104,41.6" style="fill-rule:nonzero;stroke:#404040;stroke-width:.7px"/></g><circle cx="1.104" cy="41.6" r=".72"/><circle cx="1.104" cy="41.6" r=".72"/><g><path d="M44.493,41.717L1.103,41.6" style="fill:none;fill-rule:nonzero;stroke:#404040;stroke-width:.7px"/></g><circle cx="44.493" cy="41.717" r=".72"/><circle cx="1.103" cy="41.6" r=".72"/><g><path d="M22.661,41.717L44.493,41.717" style="fill:none;fill-rule:nonzero;stroke:#404040;stroke-width:.7px"/></g><circle cx="22.661" cy="41.717" r=".72"/><circle cx="44.493" cy="41.717" r=".72"/><g><path d="M22.777,41.686L22.661,41.717" style="fill:none;fill-rule:nonzero;stroke:#404040;stroke-width:.7px"/></g><circle cx="22.661" cy="41.717" r=".72"/><g><path d="M22.662,63.286L44.377,63.287" style="fill:none;fill-rule:nonzero;stroke:#404040;stroke-width:.7px"/></g><circle cx="22.662" cy="63.286" r=".72"/><g><path d="M80.377,63.287L22.662,63.286" style="fill:none;fill-rule:nonzero;stroke:#404040;stroke-width:.7px"/></g><circle cx="80.377" cy="63.287" r="1.44"/><circle cx="22.662" cy="63.286" r=".72"/><g><path d="M22.661,63.286L80.376,63.287" style="fill:none;fill-rule:nonzero;stroke:#404040;stroke-width:.7px"/></g><circle cx="22.661" cy="63.286" r=".72"/><circle cx="80.376" cy="63.287" r="1.44"/><g><path d="M101.977,63.287L22.662,63.286" style="fill:none;fill-rule:nonzero;stroke:#404040;stroke-width:.7px"/></g><circle cx="101.977" cy="63.287" r="1.44"/><circle cx="22.662" cy="63.286" r=".72"/><g><path d="M44.494,41.717L101.977,41.686" style="fill:none;fill-rule:nonzero;stroke:#404040;stroke-width:.7px"/></g><circle cx="44.494" cy="41.717" r=".72"/><circle cx="101.977" cy="41.686" r="1.44"/><g><path d="M123.577,41.686L44.494,41.717" style="fill:none;fill-rule:nonzero;stroke:#404040;stroke-width:.7px"/></g><circle cx="123.577" cy="41.686" r="1.44"/><circle cx="44.494" cy="41.717" r=".72"/><g><path d="M80.267,63.286L101.977,63.287" style="fill:none;fill-rule:nonzero;stroke:#404040;stroke-width:.7px"/></g><circle cx="80.267" cy="63.286" r=".72"/><circle cx="101.977" cy="63.287" r="1.44"/><g><path d="M123.577,63.287L80.267,63.286" style="fill:none;fill-rule:nonzero;stroke:#404040;stroke-width:.7px"/></g><circle cx="123.577" cy="63.287" r="1.44"/><circle cx="80.267" cy="63.286" r=".72"/><g><path d="M411.457,207.158L411.699,207.306" style="fill:none;fill-rule:nonzero;stroke:#404040;stroke-width:.7px"/></g><circle cx="411.457" cy="207.158" r=".72"/><circle cx="411.699" cy="207.306" r=".72"/><g><path d="M411.505,12.774L296.377,12.886" style="fill:none;fill-rule:nonzero;stroke:#404040;stroke-width:.7px"/></g><circle cx="411.505" cy="12.774" r=".72"/><g><path d="M318.025,207.158L411.455,207.158" style="fill:none;fill-rule:nonzero;stroke:#404040;stroke-width:.7px"/></g><circle cx="318.025" cy="207.158" r=".72"/><circle cx="411.455" cy="207.158" r=".72"/><g><path d="M411.697,207.305L411.504,12.774" style="fill:none;fill-rule:nonzero;stroke:#404040;stroke-width:.7px"/></g><circle cx="411.697" cy="207.305" r=".72"/><circle cx="411.504" cy="12.774" r=".72"/><g><path d="M317.953,192.964L318.023,207.158" style="fill:none;fill-rule:nonzero;stroke:#404040;stroke-width:.7px"/></g><circle cx="317.953" cy="192.964" r=".72"/><circle cx="318.023" cy="207.158" r=".72"/><g><path d="M303.577,192.886L317.956,192.964" style="fill:none;fill-rule:nonzero;stroke:#404040;stroke-width:.7px"/></g><circle cx="317.956" cy="192.964" r=".72"/><g transform="matrix(1,0,0,1,84.9539,238.485)"><g id="partLabel"><g><g id="schematicLabel"><text x="0" y="0" style="font-family:'ArialMT','Arial',sans-serif;font-size:5px">9V</text></g></g></g></g><g transform="matrix(1,0,0,1,41.9539,238.383)"><g id="partLabel1"><g><g id="schematicLabel1"><text x="0" y="0" style="font-family:'ArialMT','Arial',sans-serif;font-size:5px">3V</text></g></g></g></g><g transform="matrix(1,0,0,1,119.519,137.029)"><g id="partLabel2"><g><g id="schematicLabel2"><text x="0" y="0" style="font-family:'ArialMT','Arial',sans-serif;font-size:5px">2N2222</text></g></g></g></g><g transform="matrix(1,0,0,1,315.169,84.3637)"><g id="partLabel3"><g><g id="schematicLabel3"><text x="0" y="0" style="font-family:'ArialMT','Arial',sans-serif;font-size:5px">S1</text></g></g></g></g><g transform="matrix(1,0,0,1,329.497,84.563)"><g id="partLabel4"><g><g id="schematicLabel4"><text x="0" y="0" style="font-family:'ArialMT','Arial',sans-serif;font-size:5px">S2</text></g></g></g></g><g transform="matrix(1,0,0,1,344.089,84.1598)"><g id="partLabel5"><g><g id="schematicLabel5"><text x="0" y="0" style="font-family:'ArialMT','Arial',sans-serif;font-size:5px">S3</text></g></g></g></g><g transform="matrix(1,0,0,1,253.422,56.7861)"><g id="partLabel6"><g><g id="schematicLabel6"><text x="0" y="0" style="font-family:'ArialMT','Arial',sans-serif;font-size:5px">Power switch</text></g></g></g></g><g transform="matrix(1,0,0,1,279.259,5)"><g id="partLabel7"><g><g id="schematicLabel7"><text x="0" y="0" style="font-family:'ArialMT','Arial',sans-serif;font-size:5px">R4</text></g></g></g></g><g transform="matrix(1,0,0,1,389.657,173.468)"><g id="partLabel8"><g><g id="schematicLabel8"><text x="0" y="0" style="font-family:'ArialMT','Arial',sans-serif;font-size:5px">R2</text></g></g></g></g><g transform="matrix(1,0,0,1,389.905,187.848)"><g id="partLabel9"><g><g id="schematicLabel9"><text x="0" y="0" style="font-family:'ArialMT','Arial',sans-serif;font-size:5px">R1</text></g></g></g></g><g transform="matrix(1,0,0,1,390.001,158.65)"><g id="partLabel10"><g><g id="schematicLabel10"><text x="0" y="0" style="font-family:'ArialMT','Arial',sans-serif;font-size:5px">R3</text></g></g></g></g><g transform="matrix(1,0,0,1,214.303,238.812)"><g id="partLabel11"><g><g id="schematicLabel11"><text x="0" y="0" style="font-family:'ArialMT','Arial',sans-serif;font-size:5px">9V</text></g></g></g></g><g transform="matrix(1,0,0,1,17.9347,33.6803)"><g id="partLabel12"><g><g id="schematicLabel12"><text x="0" y="0" style="font-family:'ArialMT','Arial',sans-serif;font-size:5px">LED1</text></g></g></g></g><g transform="matrix(1,0,0,1,38.9923,33.5681)"><g id="partLabel13"><g><g id="schematicLabel13"><text x="0" y="0" style="font-family:'ArialMT','Arial',sans-serif;font-size:5px">LED2</text></g></g></g></g><g transform="matrix(1,0,0,1,96.2059,33.3)"><g id="partLabel14"><g><g id="schematicLabel14"><text x="0" y="0" style="font-family:'ArialMT','Arial',sans-serif;font-size:5px">LED4</text></g></g></g></g><g transform="matrix(1,0,0,1,139.251,33.448)"><g id="partLabel15"><g><g id="schematicLabel15"><text x="0" y="0" style="font-family:'ArialMT','Arial',sans-serif;font-size:5px">LED6</text></g></g></g></g><g transform="matrix(1,0,0,1,75.1539,33.8424)"><g id="partLabel16"><g><g id="schematicLabel16"><text x="0" y="0" style="font-family:'ArialMT','Arial',sans-serif;font-size:5px">LED3</text></g></g></g></g><g transform="matrix(1,0,0,1,118.171,33.5299)"><g id="partLabel17"><g><g id="schematicLabel17"><text x="0" y="0" style="font-family:'ArialMT','Arial',sans-serif;font-size:5px">LED5</text></g></g></g></g></svg>