<?xml version="1.0" encoding="UTF-8" standalone="no"?>
<!DOCTYPE svg PUBLIC "-//W3C//DTD SVG 1.1//EN" "http://www.w3.org/Graphics/SVG/1.1/DTD/svg11.dtd">
<svg width="100%" height="100%" viewBox="0 0 894 184" version="1.1" xmlns="http://www.w3.org/2000/svg" xmlns:xlink="http://www.w3.org/1999/xlink" xml:space="preserve" xmlns:serif="http://www.serif.com/" style="fill-rule:evenodd;clip-rule:evenodd;stroke-linejoin:round;stroke-miterlimit:2;">
    <g id="Smartie-Sorter-3000" serif:id="Smartie Sorter 3000" transform="matrix(1.01515,0,0,1.01882,-46.9524,-100.976)">
        <rect x="46.252" y="99.111" width="879.797" height="179.924" style="fill:none;"/>
        <clipPath id="_clip1">
            <rect x="46.252" y="99.111" width="879.797" height="179.924"/>
        </clipPath>
        <g clip-path="url(#_clip1)">
            <g id="Brown-strip" serif:id="Brown strip" transform="matrix(0.81735,0.547847,-0.984821,1.45872,454.599,-17.4629)">
                <rect x="70.918" y="-34.527" width="41.474" height="262.872" style="fill:rgb(165,112,63);"/>
            </g>
            <g id="Pink-strip" serif:id="Pink strip" transform="matrix(0.81735,0.547847,-0.984821,1.45872,405.381,-17.4629)">
                <rect x="70.918" y="-34.527" width="41.474" height="262.872" style="fill:rgb(229,153,255);"/>
            </g>
            <g id="Mauve-strip" serif:id="Mauve strip" transform="matrix(0.81735,0.547847,-0.984821,1.45872,356.932,-17.4629)">
                <rect x="70.918" y="-34.527" width="41.474" height="262.872" style="fill:rgb(169,117,255);"/>
            </g>
            <g id="Blue-strip" serif:id="Blue strip" transform="matrix(0.81735,0.547847,-0.984821,1.45872,307.764,-17.4629)">
                <rect x="70.918" y="-34.527" width="41.474" height="262.872" style="fill:rgb(6,172,233);"/>
            </g>
            <g id="Green-strip" serif:id="Green strip" transform="matrix(0.81735,0.547847,-0.984821,1.45872,258.699,-17.4629)">
                <rect x="70.918" y="-34.527" width="41.474" height="262.872" style="fill:rgb(32,191,85);"/>
            </g>
            <g id="Yellow-strip" serif:id="Yellow strip" transform="matrix(0.81735,0.547847,-0.984821,1.45872,209.482,-17.4629)">
                <rect x="70.918" y="-34.527" width="41.474" height="262.872" style="fill:rgb(255,247,125);"/>
            </g>
            <g id="Orange-strip" serif:id="Orange strip" transform="matrix(0.81735,0.547847,-0.984821,1.45872,161.033,-17.4629)">
                <rect x="70.918" y="-34.527" width="41.474" height="262.872" style="fill:rgb(250,161,97);"/>
            </g>
            <g id="Red-strip" serif:id="Red strip" transform="matrix(0.81735,0.547847,-0.984821,1.45872,111.865,-17.4629)">
                <rect x="70.918" y="-34.527" width="41.474" height="262.872" style="fill:rgb(255,95,95);"/>
            </g>
            <g transform="matrix(7.88533,0,0,7.85694,-1105.39,-621.783)">
                <g transform="matrix(12,0,0,12,151.074,106.488)">
                    <path d="M0.38,-0.669L0.38,-0.479C0.366,-0.484 0.354,-0.487 0.347,-0.487C0.332,-0.487 0.319,-0.481 0.308,-0.47C0.297,-0.459 0.292,-0.446 0.292,-0.43C0.292,-0.417 0.298,-0.4 0.31,-0.379L0.325,-0.353C0.352,-0.306 0.366,-0.26 0.366,-0.215C0.366,-0.151 0.343,-0.096 0.297,-0.051C0.251,-0.006 0.194,0.017 0.128,0.017C0.096,0.017 0.064,0.009 0.033,-0.005L0.033,-0.198C0.052,-0.186 0.069,-0.18 0.083,-0.18C0.101,-0.18 0.115,-0.185 0.127,-0.195C0.138,-0.205 0.144,-0.217 0.144,-0.232C0.144,-0.242 0.135,-0.264 0.116,-0.296C0.087,-0.348 0.072,-0.401 0.072,-0.453C0.072,-0.515 0.094,-0.57 0.139,-0.615C0.184,-0.66 0.237,-0.683 0.299,-0.683C0.327,-0.683 0.354,-0.679 0.38,-0.669Z" style="fill:white;fill-rule:nonzero;"/>
                </g>
                <g transform="matrix(12,0,0,12,156.036,106.488)">
                    <path d="M0.721,-0L0.539,-0L0.539,-0.263C0.539,-0.283 0.536,-0.297 0.532,-0.305C0.528,-0.313 0.52,-0.316 0.509,-0.316C0.489,-0.316 0.479,-0.298 0.479,-0.262L0.479,-0L0.296,-0L0.296,-0.263C0.296,-0.283 0.294,-0.297 0.289,-0.305C0.285,-0.313 0.277,-0.316 0.266,-0.316C0.246,-0.316 0.236,-0.298 0.236,-0.262L0.236,-0L0.053,-0L0.053,-0.3C0.053,-0.354 0.072,-0.401 0.108,-0.439C0.145,-0.477 0.19,-0.497 0.242,-0.497C0.296,-0.497 0.345,-0.474 0.388,-0.428C0.436,-0.474 0.483,-0.497 0.531,-0.497C0.592,-0.497 0.641,-0.474 0.678,-0.43C0.707,-0.396 0.721,-0.345 0.721,-0.279L0.721,-0Z" style="fill:white;fill-rule:nonzero;"/>
                </g>
                <g transform="matrix(12,0,0,12,165.335,106.488)">
                    <path d="M0.324,-0.183L0.324,0.006C0.309,0.009 0.295,0.01 0.283,0.01C0.209,0.01 0.148,-0.014 0.1,-0.062C0.051,-0.11 0.026,-0.171 0.026,-0.243C0.026,-0.314 0.051,-0.374 0.1,-0.423C0.15,-0.472 0.21,-0.497 0.28,-0.497C0.359,-0.497 0.421,-0.474 0.467,-0.427C0.512,-0.381 0.535,-0.319 0.535,-0.239L0.535,-0L0.352,-0L0.352,-0.226C0.352,-0.251 0.346,-0.272 0.333,-0.287C0.321,-0.302 0.304,-0.31 0.283,-0.31C0.264,-0.31 0.247,-0.303 0.233,-0.289C0.219,-0.275 0.212,-0.258 0.212,-0.239C0.212,-0.219 0.218,-0.202 0.231,-0.189C0.244,-0.176 0.26,-0.17 0.279,-0.17C0.295,-0.17 0.31,-0.174 0.324,-0.183Z" style="fill:white;fill-rule:nonzero;"/>
                </g>
                <g transform="matrix(12,0,0,12,172.39,106.488)">
                    <path d="M0.32,-0.492L0.32,-0.296C0.308,-0.304 0.296,-0.307 0.286,-0.307C0.252,-0.307 0.236,-0.282 0.236,-0.231L0.236,-0L0.053,-0L0.053,-0.266C0.053,-0.336 0.072,-0.392 0.111,-0.434C0.149,-0.476 0.201,-0.497 0.265,-0.497C0.279,-0.497 0.298,-0.495 0.32,-0.492Z" style="fill:white;fill-rule:nonzero;"/>
                </g>
                <g transform="matrix(12,0,0,12,176.24,106.488)">
                    <path d="M0.216,-0.667L0.216,-0.48L0.298,-0.48L0.298,-0.287L0.216,-0.287C0.216,-0.248 0.222,-0.222 0.234,-0.207C0.246,-0.192 0.269,-0.185 0.301,-0.185L0.301,0.007C0.292,0.007 0.285,0.007 0.28,0.007C0.239,0.007 0.2,-0.002 0.163,-0.021C0.127,-0.041 0.097,-0.067 0.075,-0.1C0.047,-0.142 0.033,-0.197 0.033,-0.267L0.033,-0.667L0.216,-0.667Z" style="fill:white;fill-rule:nonzero;"/>
                </g>
                <g transform="matrix(12,0,0,12,180.253,106.488)">
                    <path d="M0.236,-0.487L0.236,-0L0.053,-0L0.053,-0.487L0.236,-0.487ZM0.145,-0.704C0.17,-0.704 0.191,-0.695 0.209,-0.678C0.227,-0.661 0.236,-0.64 0.236,-0.616C0.236,-0.591 0.228,-0.57 0.211,-0.554C0.194,-0.537 0.172,-0.529 0.145,-0.529C0.118,-0.529 0.096,-0.537 0.079,-0.554C0.062,-0.57 0.054,-0.591 0.054,-0.616C0.054,-0.64 0.063,-0.661 0.081,-0.678C0.099,-0.695 0.12,-0.704 0.145,-0.704Z" style="fill:white;fill-rule:nonzero;"/>
                </g>
                <g transform="matrix(12,0,0,12,183.734,106.488)">
                    <path d="M0.532,-0.214L0.255,-0.214C0.251,-0.228 0.249,-0.241 0.249,-0.252C0.249,-0.269 0.251,-0.285 0.257,-0.3L0.35,-0.3C0.344,-0.336 0.323,-0.354 0.289,-0.354C0.266,-0.354 0.248,-0.345 0.233,-0.325C0.219,-0.306 0.212,-0.281 0.212,-0.251C0.212,-0.219 0.219,-0.194 0.233,-0.174C0.247,-0.155 0.265,-0.145 0.287,-0.145C0.305,-0.145 0.323,-0.154 0.34,-0.172L0.444,-0.047C0.395,-0.009 0.341,0.01 0.282,0.01C0.21,0.01 0.149,-0.014 0.1,-0.063C0.051,-0.111 0.026,-0.172 0.026,-0.243C0.026,-0.314 0.051,-0.375 0.101,-0.424C0.15,-0.473 0.211,-0.498 0.284,-0.498C0.354,-0.498 0.414,-0.474 0.462,-0.426C0.51,-0.378 0.534,-0.318 0.534,-0.248C0.534,-0.241 0.533,-0.229 0.532,-0.214Z" style="fill:white;fill-rule:nonzero;"/>
                </g>
                <g transform="matrix(12,0,0,12,193.384,106.488)">
                    <path d="M0.38,-0.669L0.38,-0.479C0.366,-0.484 0.354,-0.487 0.347,-0.487C0.332,-0.487 0.319,-0.481 0.308,-0.47C0.297,-0.459 0.292,-0.446 0.292,-0.43C0.292,-0.417 0.298,-0.4 0.31,-0.379L0.325,-0.353C0.352,-0.306 0.366,-0.26 0.366,-0.215C0.366,-0.151 0.343,-0.096 0.297,-0.051C0.251,-0.006 0.194,0.017 0.128,0.017C0.096,0.017 0.064,0.009 0.033,-0.005L0.033,-0.198C0.052,-0.186 0.069,-0.18 0.083,-0.18C0.101,-0.18 0.115,-0.185 0.127,-0.195C0.138,-0.205 0.144,-0.217 0.144,-0.232C0.144,-0.242 0.135,-0.264 0.116,-0.296C0.087,-0.348 0.072,-0.401 0.072,-0.453C0.072,-0.515 0.094,-0.57 0.139,-0.615C0.184,-0.66 0.237,-0.683 0.299,-0.683C0.327,-0.683 0.354,-0.679 0.38,-0.669Z" style="fill:white;fill-rule:nonzero;"/>
                </g>
                <g transform="matrix(12,0,0,12,198.347,106.488)">
                    <path d="M0.284,-0.497C0.353,-0.497 0.412,-0.472 0.462,-0.423C0.511,-0.373 0.536,-0.313 0.536,-0.244C0.536,-0.174 0.511,-0.114 0.461,-0.064C0.411,-0.015 0.35,0.01 0.28,0.01C0.209,0.01 0.149,-0.015 0.099,-0.065C0.049,-0.114 0.023,-0.174 0.023,-0.244C0.023,-0.315 0.049,-0.375 0.099,-0.424C0.149,-0.473 0.211,-0.497 0.284,-0.497ZM0.279,-0.317C0.26,-0.317 0.243,-0.31 0.229,-0.296C0.216,-0.281 0.209,-0.264 0.209,-0.244C0.209,-0.223 0.216,-0.206 0.23,-0.192C0.244,-0.178 0.26,-0.17 0.279,-0.17C0.299,-0.17 0.316,-0.178 0.329,-0.192C0.343,-0.206 0.35,-0.223 0.35,-0.244C0.35,-0.264 0.343,-0.281 0.33,-0.296C0.316,-0.31 0.299,-0.317 0.279,-0.317Z" style="fill:white;fill-rule:nonzero;"/>
                </g>
                <g transform="matrix(12,0,0,12,205.05,106.488)">
                    <path d="M0.32,-0.492L0.32,-0.296C0.308,-0.304 0.296,-0.307 0.286,-0.307C0.252,-0.307 0.236,-0.282 0.236,-0.231L0.236,-0L0.053,-0L0.053,-0.266C0.053,-0.336 0.072,-0.392 0.111,-0.434C0.149,-0.476 0.201,-0.497 0.265,-0.497C0.279,-0.497 0.298,-0.495 0.32,-0.492Z" style="fill:white;fill-rule:nonzero;"/>
                </g>
                <g transform="matrix(12,0,0,12,208.9,106.488)">
                    <path d="M0.216,-0.667L0.216,-0.48L0.298,-0.48L0.298,-0.287L0.216,-0.287C0.216,-0.248 0.222,-0.222 0.234,-0.207C0.246,-0.192 0.269,-0.185 0.301,-0.185L0.301,0.007C0.292,0.007 0.285,0.007 0.28,0.007C0.239,0.007 0.2,-0.002 0.163,-0.021C0.127,-0.041 0.097,-0.067 0.075,-0.1C0.047,-0.142 0.033,-0.197 0.033,-0.267L0.033,-0.667L0.216,-0.667Z" style="fill:white;fill-rule:nonzero;"/>
                </g>
                <g transform="matrix(12,0,0,12,212.913,106.488)">
                    <path d="M0.532,-0.214L0.255,-0.214C0.251,-0.228 0.249,-0.241 0.249,-0.252C0.249,-0.269 0.251,-0.285 0.257,-0.3L0.35,-0.3C0.344,-0.336 0.323,-0.354 0.289,-0.354C0.266,-0.354 0.248,-0.345 0.233,-0.325C0.219,-0.306 0.212,-0.281 0.212,-0.251C0.212,-0.219 0.219,-0.194 0.233,-0.174C0.247,-0.155 0.265,-0.145 0.287,-0.145C0.305,-0.145 0.323,-0.154 0.34,-0.172L0.444,-0.047C0.395,-0.009 0.341,0.01 0.282,0.01C0.21,0.01 0.149,-0.014 0.1,-0.063C0.051,-0.111 0.026,-0.172 0.026,-0.243C0.026,-0.314 0.051,-0.375 0.101,-0.424C0.15,-0.473 0.211,-0.498 0.284,-0.498C0.354,-0.498 0.414,-0.474 0.462,-0.426C0.51,-0.378 0.534,-0.318 0.534,-0.248C0.534,-0.241 0.533,-0.229 0.532,-0.214Z" style="fill:white;fill-rule:nonzero;"/>
                </g>
                <g transform="matrix(12,0,0,12,219.564,106.488)">
                    <path d="M0.32,-0.492L0.32,-0.296C0.308,-0.304 0.296,-0.307 0.286,-0.307C0.252,-0.307 0.236,-0.282 0.236,-0.231L0.236,-0L0.053,-0L0.053,-0.266C0.053,-0.336 0.072,-0.392 0.111,-0.434C0.149,-0.476 0.201,-0.497 0.265,-0.497C0.279,-0.497 0.298,-0.495 0.32,-0.492Z" style="fill:white;fill-rule:nonzero;"/>
                </g>
                <g transform="matrix(12,0,0,12,226.413,106.488)">
                    <path d="M0.107,-0.667L0.46,-0.667L0.352,-0.41C0.391,-0.384 0.419,-0.355 0.437,-0.323C0.455,-0.292 0.463,-0.255 0.463,-0.212C0.463,-0.148 0.44,-0.094 0.393,-0.05C0.345,-0.005 0.287,0.017 0.218,0.017C0.18,0.017 0.142,0.009 0.105,-0.005L0.105,-0.193C0.133,-0.176 0.158,-0.167 0.179,-0.167C0.201,-0.167 0.221,-0.175 0.236,-0.191C0.252,-0.208 0.259,-0.228 0.259,-0.252C0.259,-0.28 0.248,-0.302 0.225,-0.318C0.201,-0.335 0.171,-0.343 0.132,-0.343L0.181,-0.474L0.107,-0.474L0.107,-0.667Z" style="fill:white;fill-rule:nonzero;"/>
                </g>
                <g transform="matrix(12,0,0,12,233.234,106.488)">
                    <path d="M0.046,-0.26L0.046,-0.407C0.046,-0.492 0.068,-0.559 0.11,-0.609C0.153,-0.658 0.21,-0.683 0.284,-0.683C0.357,-0.683 0.415,-0.658 0.458,-0.609C0.5,-0.559 0.521,-0.492 0.521,-0.407L0.521,-0.26C0.521,-0.175 0.5,-0.108 0.458,-0.058C0.415,-0.008 0.357,0.017 0.284,0.017C0.21,0.017 0.153,-0.008 0.11,-0.058C0.068,-0.108 0.046,-0.175 0.046,-0.26ZM0.236,-0.446L0.236,-0.221C0.236,-0.181 0.252,-0.16 0.284,-0.16C0.316,-0.16 0.332,-0.181 0.332,-0.221L0.332,-0.446C0.332,-0.486 0.316,-0.507 0.284,-0.507C0.252,-0.507 0.236,-0.486 0.236,-0.446Z" style="fill:white;fill-rule:nonzero;"/>
                </g>
                <g transform="matrix(12,0,0,12,240.054,106.488)">
                    <path d="M0.046,-0.26L0.046,-0.407C0.046,-0.492 0.068,-0.559 0.11,-0.609C0.153,-0.658 0.21,-0.683 0.284,-0.683C0.357,-0.683 0.415,-0.658 0.458,-0.609C0.5,-0.559 0.521,-0.492 0.521,-0.407L0.521,-0.26C0.521,-0.175 0.5,-0.108 0.458,-0.058C0.415,-0.008 0.357,0.017 0.284,0.017C0.21,0.017 0.153,-0.008 0.11,-0.058C0.068,-0.108 0.046,-0.175 0.046,-0.26ZM0.236,-0.446L0.236,-0.221C0.236,-0.181 0.252,-0.16 0.284,-0.16C0.316,-0.16 0.332,-0.181 0.332,-0.221L0.332,-0.446C0.332,-0.486 0.316,-0.507 0.284,-0.507C0.252,-0.507 0.236,-0.486 0.236,-0.446Z" style="fill:white;fill-rule:nonzero;"/>
                </g>
                <g transform="matrix(12,0,0,12,246.874,106.488)">
                    <path d="M0.046,-0.26L0.046,-0.407C0.046,-0.492 0.068,-0.559 0.11,-0.609C0.153,-0.658 0.21,-0.683 0.284,-0.683C0.357,-0.683 0.415,-0.658 0.458,-0.609C0.5,-0.559 0.521,-0.492 0.521,-0.407L0.521,-0.26C0.521,-0.175 0.5,-0.108 0.458,-0.058C0.415,-0.008 0.357,0.017 0.284,0.017C0.21,0.017 0.153,-0.008 0.11,-0.058C0.068,-0.108 0.046,-0.175 0.046,-0.26ZM0.236,-0.446L0.236,-0.221C0.236,-0.181 0.252,-0.16 0.284,-0.16C0.316,-0.16 0.332,-0.181 0.332,-0.221L0.332,-0.446C0.332,-0.486 0.316,-0.507 0.284,-0.507C0.252,-0.507 0.236,-0.486 0.236,-0.446Z" style="fill:white;fill-rule:nonzero;"/>
                </g>
                <path d="M152.414,103.714C152.41,103.769 152.386,103.815 152.342,103.853C152.271,103.914 152.181,103.938 152.076,103.938C151.959,103.938 151.83,103.878 151.68,103.782C151.561,103.706 151.41,103.701 151.286,103.769C151.162,103.837 151.085,103.967 151.085,104.109L151.085,106.423C151.085,106.573 151.172,106.71 151.308,106.774C151.737,106.975 152.171,107.074 152.609,107.074C153.512,107.074 154.277,106.767 154.904,106.155C155.534,105.541 155.849,104.79 155.849,103.904C155.849,103.311 155.672,102.695 155.306,102.058C155.306,102.058 155.125,101.743 155.125,101.743C155.027,101.572 154.965,101.436 154.965,101.326C154.965,101.243 154.992,101.173 155.049,101.115C155.1,101.061 155.162,101.033 155.234,101.033C155.298,101.033 155.389,101.06 155.507,101.1C155.625,101.141 155.756,101.121 155.858,101.049C155.959,100.976 156.019,100.859 156.019,100.734L156.019,98.454C156.019,98.289 155.915,98.142 155.759,98.088C155.401,97.965 155.036,97.903 154.665,97.903C153.813,97.903 153.079,98.213 152.465,98.836C151.853,99.457 151.548,100.197 151.548,101.056C151.548,101.744 151.74,102.434 152.131,103.122C152.285,103.395 152.399,103.676 152.414,103.714ZM155.632,98.454L155.632,100.734C155.46,100.675 155.327,100.646 155.234,100.646C155.054,100.646 154.9,100.712 154.771,100.845C154.642,100.978 154.577,101.138 154.577,101.326C154.577,101.486 154.648,101.689 154.788,101.935L154.97,102.251C155.298,102.822 155.462,103.372 155.462,103.904C155.462,104.681 155.186,105.339 154.633,105.878C154.08,106.417 153.406,106.687 152.609,106.687C152.226,106.687 151.847,106.599 151.472,106.423L151.472,104.109C151.699,104.253 151.9,104.326 152.076,104.326C152.283,104.326 152.455,104.266 152.594,104.147C152.733,104.028 152.802,103.878 152.802,103.699C152.802,103.581 152.691,103.326 152.468,102.931C152.113,102.306 151.935,101.681 151.935,101.056C151.935,100.302 152.203,99.653 152.741,99.108C153.278,98.563 153.919,98.29 154.665,98.29C154.993,98.29 155.316,98.345 155.632,98.454Z"/>
                <path d="M159.227,106.629C159.283,106.773 159.423,106.875 159.587,106.875L161.779,106.875C161.942,106.875 162.083,106.773 162.139,106.629C162.195,106.773 162.336,106.875 162.499,106.875L164.691,106.875C164.905,106.875 165.078,106.702 165.078,106.488L165.078,103.136C165.078,102.232 164.863,101.549 164.467,101.077C163.95,100.456 163.266,100.141 162.411,100.141C161.843,100.141 161.27,100.362 160.7,100.823C160.171,100.365 159.583,100.141 158.943,100.141C158.205,100.141 157.576,100.41 157.058,100.949C156.546,101.481 156.288,102.128 156.288,102.89L156.288,106.488C156.288,106.702 156.461,106.875 156.675,106.875L158.867,106.875C159.03,106.875 159.17,106.773 159.227,106.629ZM164.691,106.488L162.499,106.488L162.499,103.335C162.499,103.093 162.474,102.925 162.423,102.831C162.372,102.738 162.281,102.691 162.148,102.691C161.902,102.691 161.779,102.908 161.779,103.341L161.779,106.488L159.587,106.488L159.587,103.335C159.587,103.093 159.561,102.925 159.508,102.831C159.455,102.738 159.363,102.691 159.23,102.691C158.988,102.691 158.867,102.908 158.867,103.341L158.867,106.488L156.675,106.488L156.675,102.89C156.675,102.234 156.896,101.676 157.337,101.217C157.779,100.758 158.314,100.529 158.943,100.529C159.591,100.529 160.173,100.802 160.689,101.349C161.263,100.802 161.837,100.529 162.411,100.529C163.142,100.529 163.728,100.794 164.169,101.326C164.517,101.74 164.691,102.343 164.691,103.136L164.691,106.488Z"/>
                <path d="M169.466,106.863C169.496,106.871 169.527,106.875 169.56,106.875L171.751,106.875C171.965,106.875 172.139,106.702 172.139,106.488L172.139,103.622C172.139,102.549 171.821,101.706 171.21,101.086C170.596,100.464 169.762,100.141 168.699,100.141C167.743,100.141 166.933,100.474 166.266,101.139C165.599,101.804 165.264,102.614 165.264,103.57C165.264,104.552 165.598,105.367 166.259,106.019C166.917,106.669 167.74,106.998 168.728,106.998C168.896,106.998 169.083,106.981 169.286,106.945C169.354,106.934 169.415,106.905 169.466,106.863ZM169.22,104.296L169.22,106.564C169.04,106.595 168.876,106.611 168.728,106.611C167.849,106.611 167.117,106.322 166.531,105.743C165.945,105.165 165.652,104.441 165.652,103.57C165.652,102.722 165.948,102.003 166.539,101.413C167.131,100.824 167.851,100.529 168.699,100.529C169.644,100.529 170.389,100.805 170.934,101.358C171.479,101.91 171.751,102.665 171.751,103.622L171.751,106.488L169.56,106.488L169.56,103.781C169.56,103.472 169.485,103.226 169.334,103.042C169.184,102.859 168.982,102.767 168.728,102.767C168.497,102.767 168.298,102.851 168.13,103.019C167.962,103.187 167.878,103.386 167.878,103.617C167.878,103.859 167.954,104.058 168.107,104.214C168.259,104.37 168.452,104.449 168.687,104.449C168.878,104.449 169.056,104.398 169.22,104.296ZM169.173,103.912L169.173,103.781C169.173,103.576 169.134,103.409 169.035,103.288C168.959,103.195 168.855,103.154 168.728,103.154C168.603,103.154 168.495,103.201 168.404,103.293C168.313,103.384 168.266,103.491 168.266,103.617C168.266,103.748 168.301,103.859 168.384,103.944C168.463,104.025 168.565,104.061 168.687,104.061C168.805,104.061 168.915,104.03 169.016,103.967C169.065,103.937 169.118,103.919 169.173,103.912Z"/>
                <path d="M176.621,100.587C176.621,100.397 176.482,100.234 176.294,100.205C175.996,100.158 175.753,100.136 175.566,100.136C174.676,100.136 173.968,100.433 173.435,101.014C172.913,101.582 172.641,102.339 172.641,103.294C172.641,103.294 172.641,106.488 172.641,106.488C172.641,106.702 172.815,106.875 173.029,106.875L175.22,106.875C175.434,106.875 175.607,106.702 175.607,106.488L175.607,103.716C175.607,103.574 175.619,103.454 175.647,103.354C175.675,103.254 175.724,103.189 175.818,103.189C175.886,103.189 175.96,103.221 176.043,103.268C176.163,103.336 176.31,103.335 176.429,103.265C176.548,103.196 176.621,103.069 176.621,102.931L176.621,100.587ZM176.234,100.587L176.234,102.931C176.081,102.845 175.943,102.802 175.818,102.802C175.419,102.802 175.22,103.107 175.22,103.716L175.22,106.488L173.029,106.488L173.029,103.294C173.029,102.451 173.259,101.778 173.72,101.276C174.181,100.774 174.796,100.523 175.566,100.523C175.738,100.523 175.96,100.544 176.234,100.587Z"/>
                <path d="M179.217,98.49C179.217,98.276 179.043,98.102 178.829,98.102L176.638,98.102C176.424,98.102 176.251,98.276 176.251,98.49L176.251,103.288C176.251,104.211 176.447,104.949 176.82,105.507C176.82,105.508 176.82,105.508 176.821,105.509C177.122,105.956 177.521,106.311 178.02,106.573C178.515,106.833 179.043,106.963 179.603,106.963C179.66,106.963 179.749,106.961 179.868,106.957C180.077,106.949 180.242,106.778 180.242,106.57L180.242,104.267C180.242,104.053 180.069,103.88 179.855,103.88C179.614,103.88 179.437,103.864 179.347,103.755C179.286,103.682 179.252,103.573 179.234,103.43C179.234,103.43 179.814,103.43 179.814,103.43C180.028,103.43 180.201,103.256 180.201,103.042L180.201,100.728C180.201,100.514 180.028,100.341 179.814,100.341L179.217,100.341C179.217,100.341 179.217,98.49 179.217,98.49ZM178.829,98.49L178.829,100.728L179.814,100.728L179.814,103.042L178.829,103.042C178.829,103.507 178.903,103.827 179.049,104.003C179.196,104.179 179.464,104.267 179.855,104.267L179.855,106.57C179.742,106.574 179.658,106.576 179.603,106.576C179.107,106.576 178.639,106.46 178.2,106.23C177.76,105.999 177.408,105.687 177.142,105.292C176.806,104.788 176.638,104.12 176.638,103.288L176.638,98.49L178.829,98.49Z"/>
                <path d="M181.102,100.259L180.892,100.259C180.678,100.259 180.505,100.432 180.505,100.646L180.505,106.488C180.505,106.702 180.678,106.875 180.892,106.875L183.083,106.875C183.297,106.875 183.471,106.702 183.471,106.488L183.471,100.646C183.471,100.432 183.297,100.259 183.083,100.259L182.885,100.259C182.942,100.218 182.997,100.173 183.049,100.124C183.331,99.855 183.476,99.512 183.476,99.093C183.476,98.701 183.331,98.36 183.033,98.073C182.74,97.791 182.394,97.651 181.993,97.651C181.593,97.651 181.247,97.791 180.954,98.073C180.656,98.36 180.511,98.701 180.511,99.093C180.511,99.512 180.656,99.855 180.938,100.124C180.99,100.173 181.045,100.218 181.102,100.259ZM183.083,100.646L183.083,106.488L180.892,106.488L180.892,100.646L183.083,100.646ZM181.993,98.038C182.29,98.038 182.547,98.143 182.764,98.352C182.981,98.561 183.089,98.808 183.089,99.093C183.089,99.398 182.987,99.648 182.782,99.843C182.576,100.038 182.314,100.136 181.993,100.136C181.673,100.136 181.41,100.038 181.205,99.843C181,99.648 180.898,99.398 180.898,99.093C180.898,98.808 181.006,98.561 181.223,98.352C181.44,98.143 181.697,98.038 181.993,98.038Z"/>
                <path d="M188.223,104.308L190.115,104.308C190.316,104.308 190.484,104.154 190.501,103.953C190.517,103.751 190.525,103.604 190.525,103.511C190.525,102.559 190.198,101.758 189.548,101.107C188.897,100.457 188.095,100.13 187.138,100.13C186.163,100.13 185.341,100.463 184.671,101.126C184,101.791 183.663,102.605 183.663,103.57C183.663,104.539 183.998,105.351 184.663,106.007C185.326,106.662 186.145,106.992 187.12,106.992C187.919,106.992 188.645,106.737 189.299,106.224C189.381,106.159 189.434,106.064 189.445,105.96C189.456,105.856 189.424,105.752 189.358,105.672L188.223,104.308ZM190.115,103.921L186.792,103.921C186.742,103.753 186.716,103.599 186.716,103.458C186.716,103.263 186.751,103.072 186.822,102.884L187.935,102.884C187.857,102.451 187.613,102.234 187.202,102.234C186.929,102.234 186.706,102.35 186.534,102.582C186.363,102.815 186.277,103.113 186.277,103.476C186.277,103.855 186.36,104.161 186.526,104.396C186.692,104.63 186.909,104.747 187.179,104.747C187.398,104.747 187.609,104.638 187.812,104.419L189.06,105.919C188.478,106.376 187.831,106.605 187.12,106.605C186.253,106.605 185.525,106.314 184.935,105.732C184.345,105.15 184.05,104.429 184.05,103.57C184.05,102.714 184.348,101.992 184.944,101.402C185.539,100.812 186.271,100.517 187.138,100.517C187.986,100.517 188.698,100.805 189.274,101.381C189.85,101.957 190.138,102.667 190.138,103.511C190.138,103.597 190.13,103.734 190.115,103.921ZM187.35,104.308L186.985,104.308C187.042,104.342 187.107,104.36 187.179,104.36C187.239,104.36 187.295,104.342 187.35,104.308Z"/>
                <path d="M194.725,103.714C194.721,103.769 194.696,103.815 194.652,103.853C194.582,103.914 194.492,103.938 194.386,103.938C194.27,103.938 194.141,103.878 193.991,103.782C193.872,103.706 193.72,103.701 193.596,103.769C193.472,103.837 193.395,103.967 193.395,104.109L193.395,106.423C193.395,106.573 193.482,106.71 193.618,106.774C194.047,106.975 194.481,107.074 194.919,107.074C195.823,107.074 196.587,106.767 197.214,106.155C197.844,105.541 198.16,104.79 198.16,103.904C198.16,103.311 197.982,102.695 197.616,102.058C197.616,102.058 197.435,101.743 197.435,101.743C197.338,101.572 197.275,101.436 197.275,101.326C197.275,101.243 197.303,101.173 197.359,101.115C197.411,101.061 197.472,101.033 197.544,101.033C197.609,101.033 197.699,101.06 197.818,101.1C197.936,101.141 198.066,101.121 198.168,101.049C198.27,100.976 198.33,100.859 198.33,100.734L198.33,98.454C198.33,98.289 198.225,98.142 198.069,98.088C197.711,97.965 197.347,97.903 196.976,97.903C196.123,97.903 195.389,98.213 194.775,98.836C194.163,99.457 193.858,100.197 193.858,101.056C193.858,101.744 194.05,102.434 194.442,103.122C194.596,103.395 194.71,103.676 194.725,103.714ZM197.943,98.454L197.943,100.734C197.771,100.675 197.638,100.646 197.544,100.646C197.365,100.646 197.21,100.712 197.081,100.845C196.952,100.978 196.888,101.138 196.888,101.326C196.888,101.486 196.958,101.689 197.099,101.935L197.281,102.251C197.609,102.822 197.773,103.372 197.773,103.904C197.773,104.681 197.496,105.339 196.944,105.878C196.391,106.417 195.716,106.687 194.919,106.687C194.536,106.687 194.158,106.599 193.783,106.423L193.783,104.109C194.009,104.253 194.21,104.326 194.386,104.326C194.593,104.326 194.766,104.266 194.905,104.147C195.043,104.028 195.113,103.878 195.113,103.699C195.113,103.581 195.001,103.326 194.779,102.931C194.423,102.306 194.245,101.681 194.245,101.056C194.245,100.302 194.514,99.653 195.051,99.108C195.588,98.563 196.23,98.29 196.976,98.29C197.304,98.29 197.626,98.345 197.943,98.454Z"/>
                <path d="M201.757,100.136C200.767,100.136 199.936,100.466 199.261,101.121C198.582,101.78 198.241,102.592 198.241,103.558C198.241,104.505 198.58,105.315 199.258,105.986C199.935,106.657 200.75,106.992 201.704,106.992C202.659,106.992 203.473,106.658 204.148,105.989C204.824,105.32 205.162,104.509 205.162,103.558C205.162,102.62 204.829,101.815 204.162,101.143C203.494,100.471 202.692,100.136 201.757,100.136ZM201.757,100.523C202.585,100.523 203.295,100.821 203.887,101.416C204.479,102.012 204.775,102.726 204.775,103.558C204.775,104.402 204.475,105.12 203.875,105.714C203.276,106.308 202.552,106.605 201.704,106.605C200.857,106.605 200.132,106.307 199.531,105.711C198.929,105.116 198.628,104.398 198.628,103.558C198.628,102.702 198.929,101.983 199.531,101.399C200.132,100.815 200.874,100.523 201.757,100.523ZM201.699,102.685C201.464,102.685 201.265,102.77 201.101,102.94C200.937,103.11 200.855,103.318 200.855,103.564C200.855,103.806 200.938,104.013 201.104,104.185C201.27,104.357 201.468,104.443 201.699,104.443C201.933,104.443 202.133,104.357 202.299,104.185C202.465,104.013 202.548,103.806 202.548,103.564C202.548,103.318 202.466,103.11 202.302,102.94C202.138,102.77 201.937,102.685 201.699,102.685ZM201.699,103.072C201.827,103.072 201.935,103.117 202.023,103.209C202.117,103.305 202.161,103.424 202.161,103.564C202.161,103.701 202.115,103.818 202.021,103.916C201.931,104.008 201.824,104.055 201.699,104.055C201.576,104.055 201.471,104.007 201.382,103.916C201.288,103.818 201.242,103.701 201.242,103.564C201.242,103.424 201.286,103.305 201.38,103.209C201.467,103.118 201.573,103.072 201.699,103.072Z"/>
                <path d="M209.281,100.587C209.281,100.397 209.142,100.234 208.954,100.205C208.656,100.158 208.413,100.136 208.226,100.136C207.336,100.136 206.628,100.433 206.095,101.014C205.573,101.582 205.302,102.339 205.302,103.294L205.302,106.488C205.302,106.702 205.475,106.875 205.689,106.875L207.88,106.875C208.094,106.875 208.267,106.702 208.267,106.488L208.267,103.716C208.267,103.574 208.279,103.454 208.307,103.354C208.335,103.254 208.384,103.189 208.478,103.189C208.546,103.189 208.62,103.221 208.704,103.268C208.824,103.336 208.97,103.335 209.089,103.265C209.208,103.196 209.281,103.069 209.281,102.931L209.281,100.587ZM208.894,100.587L208.894,102.931C208.742,102.845 208.603,102.802 208.478,102.802C208.079,102.802 207.88,103.107 207.88,103.716L207.88,106.488L205.689,106.488L205.689,103.294C205.689,102.451 205.919,101.778 206.38,101.276C206.841,100.774 207.456,100.523 208.226,100.523C208.398,100.523 208.62,100.544 208.894,100.587Z"/>
                <path d="M211.877,98.49C211.877,98.276 211.703,98.102 211.49,98.102L209.298,98.102C209.084,98.102 208.911,98.276 208.911,98.49L208.911,103.288C208.911,104.211 209.107,104.949 209.48,105.507C209.48,105.508 209.481,105.508 209.481,105.509C209.782,105.956 210.181,106.311 210.68,106.573C211.176,106.833 211.703,106.963 212.263,106.963C212.321,106.963 212.409,106.961 212.528,106.957C212.737,106.949 212.902,106.778 212.902,106.57L212.902,104.267C212.902,104.053 212.729,103.88 212.515,103.88C212.274,103.88 212.097,103.864 212.007,103.755C211.946,103.682 211.912,103.573 211.895,103.43C211.895,103.43 212.474,103.43 212.474,103.43C212.688,103.43 212.861,103.256 212.861,103.042L212.861,100.728C212.861,100.514 212.688,100.341 212.474,100.341L211.877,100.341C211.877,100.341 211.877,98.49 211.877,98.49ZM211.49,98.49L211.49,100.728L212.474,100.728L212.474,103.042L211.49,103.042C211.49,103.507 211.563,103.827 211.709,104.003C211.856,104.179 212.124,104.267 212.515,104.267L212.515,106.57C212.402,106.574 212.318,106.576 212.263,106.576C211.767,106.576 211.299,106.46 210.86,106.23C210.42,105.999 210.068,105.687 209.802,105.292C209.466,104.788 209.298,104.12 209.298,103.288L209.298,98.49L211.49,98.49Z"/>
                <path d="M217.403,104.308L219.294,104.308C219.496,104.308 219.663,104.154 219.68,103.953C219.697,103.751 219.705,103.604 219.705,103.511C219.705,102.559 219.378,101.758 218.727,101.107C218.077,100.457 217.274,100.13 216.318,100.13C215.343,100.13 214.521,100.463 213.851,101.126C213.179,101.791 212.843,102.605 212.843,103.57C212.843,104.539 213.177,105.351 213.843,106.007C214.506,106.662 215.325,106.992 216.3,106.992C217.099,106.992 217.825,106.737 218.479,106.224C218.561,106.159 218.614,106.064 218.625,105.96C218.636,105.856 218.604,105.752 218.537,105.672L217.403,104.308ZM219.294,103.921L215.972,103.921C215.921,103.753 215.896,103.599 215.896,103.458C215.896,103.263 215.931,103.072 216.001,102.884L217.115,102.884C217.036,102.451 216.792,102.234 216.382,102.234C216.109,102.234 215.886,102.35 215.714,102.582C215.542,102.815 215.456,103.113 215.456,103.476C215.456,103.855 215.539,104.161 215.705,104.396C215.871,104.63 216.089,104.747 216.359,104.747C216.577,104.747 216.788,104.638 216.992,104.419L218.24,105.919C217.658,106.376 217.011,106.605 216.3,106.605C215.433,106.605 214.704,106.314 214.115,105.732C213.525,105.15 213.23,104.429 213.23,103.57C213.23,102.714 213.528,101.992 214.123,101.402C214.719,100.812 215.451,100.517 216.318,100.517C217.165,100.517 217.877,100.805 218.453,101.381C219.03,101.957 219.318,102.667 219.318,103.511C219.318,103.597 219.31,103.734 219.294,103.921ZM216.53,104.308L216.164,104.308C216.222,104.342 216.286,104.36 216.359,104.36C216.418,104.36 216.475,104.342 216.53,104.308Z"/>
                <path d="M223.795,100.587C223.795,100.397 223.656,100.234 223.468,100.205C223.17,100.158 222.927,100.136 222.74,100.136C221.85,100.136 221.142,100.433 220.609,101.014C220.087,101.582 219.815,102.339 219.815,103.294L219.815,106.488C219.815,106.702 219.989,106.875 220.202,106.875L222.394,106.875C222.608,106.875 222.781,106.702 222.781,106.488L222.781,103.716C222.781,103.574 222.793,103.454 222.821,103.354C222.849,103.254 222.897,103.189 222.992,103.189C223.06,103.189 223.134,103.221 223.217,103.268C223.337,103.336 223.484,103.335 223.603,103.265C223.722,103.196 223.795,103.069 223.795,102.931L223.795,100.587ZM223.408,100.587L223.408,102.931C223.255,102.845 223.117,102.802 222.992,102.802C222.593,102.802 222.394,103.107 222.394,103.716L222.394,106.488L220.202,106.488L220.202,103.294C220.202,102.451 220.433,101.778 220.894,101.276C221.355,100.774 221.97,100.523 222.74,100.523C222.911,100.523 223.134,100.544 223.408,100.587Z"/>
                <path d="M227.702,98.102C227.489,98.102 227.315,98.276 227.315,98.49L227.315,100.798C227.315,101.012 227.489,101.185 227.702,101.185L228.028,101.185C228.028,101.185 227.633,102.238 227.633,102.238C227.588,102.357 227.605,102.49 227.677,102.595C227.749,102.699 227.868,102.762 227.995,102.762C228.365,102.762 228.664,102.829 228.884,102.986C229.052,103.105 229.137,103.264 229.137,103.464C229.137,103.647 229.083,103.801 228.966,103.924C228.856,104.04 228.72,104.096 228.558,104.096C228.364,104.096 228.141,104.002 227.877,103.838C227.758,103.764 227.608,103.761 227.485,103.829C227.362,103.897 227.286,104.027 227.286,104.167L227.286,106.429C227.286,106.59 227.385,106.733 227.535,106.791C228.03,106.98 228.529,107.074 229.033,107.074C229.966,107.074 230.75,106.772 231.389,106.176C232.037,105.57 232.361,104.826 232.361,103.945C232.361,103.355 232.235,102.846 231.992,102.415C231.794,102.066 231.502,101.737 231.109,101.433C231.109,101.433 232.295,98.641 232.295,98.641C232.346,98.521 232.333,98.384 232.262,98.276C232.19,98.167 232.069,98.102 231.939,98.102L227.702,98.102ZM227.702,98.49L231.939,98.49L230.632,101.566C231.101,101.882 231.442,102.229 231.655,102.606C231.868,102.983 231.974,103.429 231.974,103.945C231.974,104.714 231.691,105.364 231.124,105.893C230.558,106.422 229.861,106.687 229.033,106.687C228.576,106.687 228.122,106.601 227.673,106.429L227.673,104.167C228.013,104.378 228.308,104.484 228.558,104.484C228.831,104.484 229.061,104.386 229.246,104.191C229.432,103.995 229.525,103.753 229.525,103.464C229.525,103.132 229.386,102.868 229.109,102.67C228.831,102.473 228.46,102.374 227.995,102.374L228.587,100.798L227.702,100.798L227.702,98.49Z"/>
                <path d="M233.403,103.365C233.403,104.496 233.697,105.387 234.261,106.045C234.843,106.726 235.634,107.074 236.638,107.074C237.642,107.074 238.433,106.726 239.018,106.046C239.583,105.387 239.879,104.496 239.879,103.365C239.879,103.365 239.879,101.607 239.879,101.607C239.879,100.475 239.583,99.585 239.017,98.928C238.433,98.25 237.642,97.903 236.638,97.903C235.634,97.903 234.844,98.25 234.261,98.929C233.698,99.585 233.403,100.475 233.403,101.607L233.403,103.365ZM233.79,103.365L233.79,101.607C233.79,100.583 234.045,99.775 234.555,99.181C235.065,98.587 235.759,98.29 236.638,98.29C237.517,98.29 238.212,98.587 238.724,99.181C239.236,99.775 239.492,100.583 239.492,101.607L239.492,103.365C239.492,104.388 239.236,105.198 238.724,105.793C238.212,106.389 237.517,106.687 236.638,106.687C235.759,106.687 235.065,106.389 234.555,105.793C234.045,105.198 233.79,104.388 233.79,103.365ZM236.07,101.138L236.07,103.833C236.07,104.322 236.259,104.566 236.638,104.566C237.021,104.566 237.212,104.322 237.212,103.833L237.212,101.138C237.212,100.65 237.021,100.406 236.638,100.406C236.259,100.406 236.07,100.65 236.07,101.138ZM236.457,101.138C236.457,100.989 236.457,100.876 236.527,100.817C236.554,100.793 236.593,100.793 236.638,100.793C236.685,100.793 236.726,100.794 236.755,100.818C236.824,100.877 236.825,100.99 236.825,101.138C236.825,101.138 236.825,103.833 236.825,103.833C236.825,103.981 236.824,104.094 236.755,104.154C236.726,104.178 236.685,104.178 236.638,104.178C236.593,104.178 236.554,104.178 236.527,104.155C236.457,104.095 236.457,103.982 236.457,103.833C236.457,103.833 236.457,101.138 236.457,101.138Z"/>
                <path d="M240.223,103.365C240.223,104.496 240.518,105.387 241.081,106.045C241.664,106.726 242.454,107.074 243.458,107.074C244.462,107.074 245.253,106.726 245.838,106.046C246.404,105.387 246.699,104.496 246.699,103.365C246.699,103.365 246.699,101.607 246.699,101.607C246.699,100.475 246.404,99.585 245.838,98.928C245.253,98.25 244.462,97.903 243.458,97.903C242.454,97.903 241.664,98.25 241.081,98.929C240.518,99.585 240.223,100.475 240.223,101.607L240.223,103.365ZM240.611,103.365L240.611,101.607C240.611,100.583 240.866,99.775 241.375,99.181C241.885,98.587 242.579,98.29 243.458,98.29C244.337,98.29 245.033,98.587 245.544,99.181C246.056,99.775 246.312,100.583 246.312,101.607L246.312,103.365C246.312,104.388 246.056,105.198 245.544,105.793C245.033,106.389 244.337,106.687 243.458,106.687C242.579,106.687 241.885,106.389 241.375,105.793C240.866,105.198 240.611,104.388 240.611,103.365ZM242.89,101.138L242.89,103.833C242.89,104.322 243.079,104.566 243.458,104.566C243.841,104.566 244.033,104.322 244.033,103.833L244.033,101.138C244.033,100.65 243.841,100.406 243.458,100.406C243.079,100.406 242.89,100.65 242.89,101.138ZM243.277,101.138C243.277,100.989 243.278,100.876 243.347,100.817C243.374,100.793 243.413,100.793 243.458,100.793C243.506,100.793 243.547,100.794 243.575,100.818C243.645,100.877 243.645,100.99 243.645,101.138C243.645,101.138 243.645,103.833 243.645,103.833C243.645,103.981 243.645,104.094 243.575,104.154C243.547,104.178 243.506,104.178 243.458,104.178C243.413,104.178 243.374,104.178 243.347,104.155C243.278,104.095 243.277,103.982 243.277,103.833C243.277,103.833 243.277,101.138 243.277,101.138Z"/>
                <path d="M247.044,103.365C247.044,104.496 247.338,105.387 247.901,106.045C248.484,106.726 249.274,107.074 250.279,107.074C251.283,107.074 252.074,106.726 252.658,106.046C253.224,105.387 253.519,104.496 253.519,103.365C253.519,103.365 253.519,101.607 253.519,101.607C253.519,100.475 253.224,99.585 252.658,98.928C252.073,98.25 251.283,97.903 250.279,97.903C249.274,97.903 248.484,98.25 247.902,98.929C247.338,99.585 247.044,100.475 247.044,101.607C247.044,101.607 247.044,103.365 247.044,103.365ZM247.431,103.365L247.431,101.607C247.431,100.583 247.686,99.775 248.196,99.181C248.705,98.587 249.4,98.29 250.279,98.29C251.158,98.29 251.853,98.587 252.365,99.181C252.876,99.775 253.132,100.583 253.132,101.607L253.132,103.365C253.132,104.388 252.876,105.198 252.365,105.793C251.853,106.389 251.158,106.687 250.279,106.687C249.4,106.687 248.705,106.389 248.196,105.793C247.686,105.198 247.431,104.388 247.431,103.365ZM249.71,101.138L249.71,103.833C249.71,104.322 249.9,104.566 250.279,104.566C250.661,104.566 250.853,104.322 250.853,103.833L250.853,101.138C250.853,100.65 250.661,100.406 250.279,100.406C249.9,100.406 249.71,100.65 249.71,101.138ZM250.098,101.138C250.098,100.989 250.098,100.876 250.167,100.817C250.194,100.793 250.233,100.793 250.279,100.793C250.326,100.793 250.367,100.794 250.395,100.818C250.465,100.877 250.466,100.99 250.466,101.138C250.466,101.138 250.466,103.833 250.466,103.833C250.466,103.981 250.465,104.094 250.395,104.154C250.367,104.178 250.326,104.178 250.279,104.178C250.233,104.178 250.194,104.178 250.167,104.155C250.098,104.095 250.098,103.982 250.098,103.833L250.098,101.138Z"/>
            </g>
        </g>
    </g>
</svg>
