0
SECTION
2
HEADER
9
$INSUNITS
70
4
9
$ACADVER
1
AC1014
9
$HANDSEED
5
FFFF
0
ENDSEC
0
SECTION
2
TABLES
0
TABLE
2
VPORT
5
8
100
AcDbSymbolTable
0
ENDTAB
0
TABLE
2
LTYPE
5
5
100
AcDbSymbolTable
0
LTYPE
5
14
100
AcDbSymbolTableRecord
100
AcDbLinetypeTableRecord
2
BYBLOCK
70
0
0
LTYPE
5
15
100
AcDbSymbolTableRecord
100
AcDbLinetypeTableRecord
2
BYLAYER
70
0
0
LTYPE
5
16
100
AcDbSymbolTableRecord
100
AcDbLinetypeTableRecord
2
DASHED
70
0
3
Dashed __ __ __ __ __ __ __ __ __ __ __ __ __ _
72
65
73
2
40
0.75
49
0.5
74
0
49
-0.25
74
0
0
ENDTAB
0
TABLE
2
LAYER
5
2
100
AcDbSymbolTable
70
2
0
LAYER
5
50
100
AcDbSymbolTableRecord
100
AcDbLayerTableRecord
2
0
70
0
62
7
6
CONTINUOUS
0
ENDTAB
0
TABLE
2
STYLE
5
3
100
AcDbSymbolTable
70
1
0
STYLE
5
11
100
AcDbSymbolTableRecord
100
AcDbTextStyleTableRecord
2
STANDARD
70
0
0
ENDTAB
0
TABLE
2
VIEW
5
6
100
AcDbSymbolTable
70
0
0
ENDTAB
0
TABLE
2
UCS
5
7
100
AcDbSymbolTable
70
0
0
ENDTAB
0
TABLE
2
APPID
5
9
100
AcDbSymbolTable
70
2
0
APPID
5
12
100
AcDbSymbolTableRecord
100
AcDbRegAppTableRecord
2
ACAD
70
0
0
ENDTAB
0
TABLE
2
DIMSTYLE
5
A
100
AcDbSymbolTable
70
1
0
ENDTAB
0
TABLE
2
BLOCK_RECORD
5
1
100
AcDbSymbolTable
70
1
0
BLOCK_RECORD
5
1F
100
AcDbSymbolTableRecord
100
AcDbBlockTableRecord
2
*MODEL_SPACE
0
BLOCK_RECORD
5
1B
100
AcDbSymbolTableRecord
100
AcDbBlockTableRecord
2
*PAPER_SPACE
0
ENDTAB
0
ENDSEC
0
SECTION
2
BLOCKS
0
BLOCK
5
20
100
AcDbEntity
100
AcDbBlockBegin
2
*MODEL_SPACE
0
ENDBLK
5
21
100
AcDbEntity
100
AcDbBlockEnd
0
BLOCK
5
1C
100
AcDbEntity
100
AcDbBlockBegin
2
*PAPER_SPACE
0
ENDBLK
5
1D
100
AcDbEntity
100
AcDbBlockEnd
0
ENDSEC
0
SECTION
2
ENTITIES
0
LWPOLYLINE
5
100
100
AcDbEntity
8
0
100
AcDbPolyline
90
4
70
1
43
0.0
10
-177.35000000000008
20
140.50000000000006
10
-147.80000000000007
20
140.50000000000006
10
-147.80000000000007
20
137.50000000000003
10
-177.35000000000008
20
137.50000000000003
0
LWPOLYLINE
5
101
100
AcDbEntity
8
0
100
AcDbPolyline
90
4
70
1
43
0.0
10
-29.600000000000062
20
137.50000000000003
10
-59.150000000000063
20
137.50000000000003
10
-59.150000000000063
20
140.50000000000006
10
-29.600000000000062
20
140.50000000000006
0
LWPOLYLINE
5
102
100
AcDbEntity
8
0
100
AcDbPolyline
90
4
70
1
43
0.0
10
-118.25000000000006
20
140.50000000000006
10
-88.70000000000006
20
140.50000000000006
10
-88.70000000000006
20
137.50000000000003
10
-118.25000000000006
20
137.50000000000003
0
LWPOLYLINE
5
103
100
AcDbEntity
8
0
100
AcDbPolyline
90
4
70
1
43
0.0
10
-236.45000000000005
20
140.50000000000006
10
-206.90000000000003
20
140.50000000000006
10
-206.90000000000003
20
137.50000000000003
10
-236.45000000000005
20
137.50000000000003
0
LWPOLYLINE
5
104
100
AcDbEntity
8
0
100
AcDbPolyline
90
68
70
1
43
0.0
10
-236.45000000000005
20
19.999999999999961
10
-236.45000000000005
20
22.999999999999968
10
-206.90000000000003
20
22.999999999999968
10
-206.90000000000003
20
19.999999999999961
10
-177.35000000000008
20
19.999999999999961
10
-177.35000000000008
20
22.999999999999968
10
-147.80000000000007
20
22.999999999999968
10
-147.80000000000007
20
19.999999999999961
10
-118.25000000000006
20
19.999999999999961
10
-118.25000000000006
20
22.999999999999968
10
-88.70000000000006
20
22.999999999999968
10
-88.70000000000006
20
19.999999999999961
10
-59.150000000000063
20
19.999999999999961
10
-59.150000000000063
20
22.999999999999968
10
-29.600000000000062
20
22.999999999999968
10
-29.600000000000062
20
19.999999999999961
10
-26
20
19.999999999999996
42
-0.41421356237309492
10
-6.0000000000000053
20
1.2246467991473535e-15
10
0
20
0
10
-1.9055386355859003e-32
20
32.250000000000014
10
-3.0000000000000004
20
32.250000000000014
10
-3.0000000000000004
20
64.500000000000028
10
0
20
64.500000000000028
10
0
20
96.750000000000043
10
-3.0000000000000004
20
96.750000000000043
10
-3.0000000000000004
20
129.00000000000003
10
0
20
129.00000000000003
10
0
20
158.25000000000003
10
-3.0000000000000004
20
158.25000000000003
10
-3.0000000000000004
20
196.50000000000006
10
0
20
196.50000000000006
10
0
20
225.75000000000003
10
-3.0000000000000004
20
225.75000000000003
10
-3.0000000000000004
20
258.00000000000006
10
-29.600000000000062
20
258.00000000000006
10
-29.600000000000062
20
255.00000000000003
10
-59.150000000000063
20
255.00000000000003
10
-59.150000000000063
20
258.00000000000006
10
-88.70000000000006
20
258.00000000000006
10
-88.70000000000006
20
255.00000000000003
10
-118.25000000000006
20
255.00000000000003
10
-118.25000000000006
20
258.00000000000006
10
-147.80000000000007
20
258.00000000000006
10
-147.80000000000007
20
255.00000000000003
10
-177.35000000000008
20
255.00000000000003
10
-177.35000000000008
20
258.00000000000006
10
-206.90000000000003
20
258.00000000000006
10
-206.90000000000003
20
255.00000000000003
10
-236.45000000000005
20
255.00000000000003
10
-236.45000000000005
20
258.00000000000006
10
-263
20
258.00000000000006
10
-263
20
225.75000000000003
10
-266
20
225.75000000000003
10
-266
20
196.50000000000006
10
-263
20
196.50000000000006
10
-263
20
158.25000000000003
10
-266
20
158.25000000000003
10
-266
20
129.00000000000003
10
-263
20
129.00000000000003
10
-263
20
96.750000000000043
10
-266
20
96.750000000000043
10
-266
20
64.500000000000028
10
-263
20
64.500000000000028
10
-263
20
32.250000000000014
10
-266
20
32.250000000000014
10
-266
20
0
10
-260
20
-3.4450928483976586e-15
42
-0.4142135623730952
10
-240
20
20
0
ENDSEC
0
SECTION
2
OBJECTS
0
DICTIONARY
5
C
100
AcDbDictionary
3
ACAD_GROUP
350
D
3
ACAD_MLINESTYLE
350
17
0
DICTIONARY
5
D
100
AcDbDictionary
0
DICTIONARY
5
1A
330
C
100
AcDbDictionary
0
DICTIONARY
5
17
100
AcDbDictionary
0
ENDSEC
0
EOF
