0
SECTION
2
HEADER
9
$INSUNITS
70
4
9
$ACADVER
1
AC1014
9
$HANDSEED
5
FFFF
0
ENDSEC
0
SECTION
2
TABLES
0
TABLE
2
VPORT
5
8
100
AcDbSymbolTable
0
ENDTAB
0
TABLE
2
LTYPE
5
5
100
AcDbSymbolTable
0
LTYPE
5
14
100
AcDbSymbolTableRecord
100
AcDbLinetypeTableRecord
2
BYBLOCK
70
0
0
LTYPE
5
15
100
AcDbSymbolTableRecord
100
AcDbLinetypeTableRecord
2
BYLAYER
70
0
0
LTYPE
5
16
100
AcDbSymbolTableRecord
100
AcDbLinetypeTableRecord
2
DASHED
70
0
3
Dashed __ __ __ __ __ __ __ __ __ __ __ __ __ _
72
65
73
2
40
0.75
49
0.5
74
0
49
-0.25
74
0
0
ENDTAB
0
TABLE
2
LAYER
5
2
100
AcDbSymbolTable
70
2
0
LAYER
5
50
100
AcDbSymbolTableRecord
100
AcDbLayerTableRecord
2
0
70
0
62
7
6
CONTINUOUS
0
ENDTAB
0
TABLE
2
STYLE
5
3
100
AcDbSymbolTable
70
1
0
STYLE
5
11
100
AcDbSymbolTableRecord
100
AcDbTextStyleTableRecord
2
STANDARD
70
0
0
ENDTAB
0
TABLE
2
VIEW
5
6
100
AcDbSymbolTable
70
0
0
ENDTAB
0
TABLE
2
UCS
5
7
100
AcDbSymbolTable
70
0
0
ENDTAB
0
TABLE
2
APPID
5
9
100
AcDbSymbolTable
70
2
0
APPID
5
12
100
AcDbSymbolTableRecord
100
AcDbRegAppTableRecord
2
ACAD
70
0
0
ENDTAB
0
TABLE
2
DIMSTYLE
5
A
100
AcDbSymbolTable
70
1
0
ENDTAB
0
TABLE
2
BLOCK_RECORD
5
1
100
AcDbSymbolTable
70
1
0
BLOCK_RECORD
5
1F
100
AcDbSymbolTableRecord
100
AcDbBlockTableRecord
2
*MODEL_SPACE
0
BLOCK_RECORD
5
1B
100
AcDbSymbolTableRecord
100
AcDbBlockTableRecord
2
*PAPER_SPACE
0
ENDTAB
0
ENDSEC
0
SECTION
2
BLOCKS
0
BLOCK
5
20
100
AcDbEntity
100
AcDbBlockBegin
2
*MODEL_SPACE
0
ENDBLK
5
21
100
AcDbEntity
100
AcDbBlockEnd
0
BLOCK
5
1C
100
AcDbEntity
100
AcDbBlockBegin
2
*PAPER_SPACE
0
ENDBLK
5
1D
100
AcDbEntity
100
AcDbBlockEnd
0
ENDSEC
0
SECTION
2
ENTITIES
0
LWPOLYLINE
5
100
100
AcDbEntity
8
0
100
AcDbPolyline
90
4
70
1
43
0.0
10
131.49999999999994
20
52.000000000000028
10
134.49999999999991
20
52.000000000000028
10
134.49999999999991
20
20.000000000000032
10
131.49999999999994
20
20.000000000000032
0
LWPOLYLINE
5
101
100
AcDbEntity
8
0
100
AcDbPolyline
90
4
70
1
43
0.0
10
65.749999999999943
20
52.000000000000028
10
68.749999999999915
20
52.000000000000028
10
68.749999999999915
20
20.000000000000032
10
65.749999999999943
20
20.000000000000032
0
LWPOLYLINE
5
102
100
AcDbEntity
8
0
100
AcDbPolyline
90
4
70
1
43
0.0
10
197.24999999999994
20
52.000000000000028
10
200.24999999999991
20
52.000000000000028
10
200.24999999999991
20
20.000000000000032
10
197.24999999999994
20
20.000000000000032
0
LWPOLYLINE
5
103
100
AcDbEntity
8
0
100
AcDbPolyline
90
28
70
1
43
0.0
10
263
20
52
10
263
20
72.000000000000043
10
3.0000000000000071
20
72
10
2.9999999999999942
20
52
10
-6.106226635438361e-15
20
52
10
-2.4492935982947073e-15
20
20
10
2.9999999999999982
20
20
10
2.9999999999999893
20
3.0000000000000004
10
29.600000000000062
20
3.0000000000000053
10
29.600000000000062
20
4.9960036108132044e-15
10
59.150000000000063
20
8.7195517822993086e-15
10
59.150000000000063
20
3.0000000000000093
10
88.70000000000006
20
3.0000000000000124
10
88.70000000000006
20
1.2212453270876722e-14
10
118.25000000000006
20
1.5957214365260168e-14
10
118.25000000000006
20
3.0000000000000164
10
147.80000000000007
20
3.00000000000002
10
147.80000000000007
20
1.9428902930940239e-14
10
177.35000000000008
20
2.3194876948221025e-14
10
177.35000000000008
20
3.000000000000024
10
206.90000000000003
20
3.0000000000000271
10
206.90000000000003
20
2.6645352591003757e-14
10
236.45000000000005
20
3.0432539531181876e-14
10
236.45000000000005
20
3.0000000000000311
10
263
20
3.000000000000032
10
263
20
20
10
266
20
20
10
266
20
52
0
ENDSEC
0
SECTION
2
OBJECTS
0
DICTIONARY
5
C
100
AcDbDictionary
3
ACAD_GROUP
350
D
3
ACAD_MLINESTYLE
350
17
0
DICTIONARY
5
D
100
AcDbDictionary
0
DICTIONARY
5
1A
330
C
100
AcDbDictionary
0
DICTIONARY
5
17
100
AcDbDictionary
0
ENDSEC
0
EOF
