0
SECTION
2
HEADER
9
$INSUNITS
70
4
9
$ACADVER
1
AC1014
9
$HANDSEED
5
FFFF
0
ENDSEC
0
SECTION
2
TABLES
0
TABLE
2
VPORT
5
8
100
AcDbSymbolTable
0
ENDTAB
0
TABLE
2
LTYPE
5
5
100
AcDbSymbolTable
0
LTYPE
5
14
100
AcDbSymbolTableRecord
100
AcDbLinetypeTableRecord
2
BYBLOCK
70
0
0
LTYPE
5
15
100
AcDbSymbolTableRecord
100
AcDbLinetypeTableRecord
2
BYLAYER
70
0
0
LTYPE
5
16
100
AcDbSymbolTableRecord
100
AcDbLinetypeTableRecord
2
DASHED
70
0
3
Dashed __ __ __ __ __ __ __ __ __ __ __ __ __ _
72
65
73
2
40
0.75
49
0.5
74
0
49
-0.25
74
0
0
ENDTAB
0
TABLE
2
LAYER
5
2
100
AcDbSymbolTable
70
2
0
LAYER
5
50
100
AcDbSymbolTableRecord
100
AcDbLayerTableRecord
2
0
70
0
62
7
6
CONTINUOUS
0
ENDTAB
0
TABLE
2
STYLE
5
3
100
AcDbSymbolTable
70
1
0
STYLE
5
11
100
AcDbSymbolTableRecord
100
AcDbTextStyleTableRecord
2
STANDARD
70
0
0
ENDTAB
0
TABLE
2
VIEW
5
6
100
AcDbSymbolTable
70
0
0
ENDTAB
0
TABLE
2
UCS
5
7
100
AcDbSymbolTable
70
0
0
ENDTAB
0
TABLE
2
APPID
5
9
100
AcDbSymbolTable
70
2
0
APPID
5
12
100
AcDbSymbolTableRecord
100
AcDbRegAppTableRecord
2
ACAD
70
0
0
ENDTAB
0
TABLE
2
DIMSTYLE
5
A
100
AcDbSymbolTable
70
1
0
ENDTAB
0
TABLE
2
BLOCK_RECORD
5
1
100
AcDbSymbolTable
70
1
0
BLOCK_RECORD
5
1F
100
AcDbSymbolTableRecord
100
AcDbBlockTableRecord
2
*MODEL_SPACE
0
BLOCK_RECORD
5
1B
100
AcDbSymbolTableRecord
100
AcDbBlockTableRecord
2
*PAPER_SPACE
0
ENDTAB
0
ENDSEC
0
SECTION
2
BLOCKS
0
BLOCK
5
20
100
AcDbEntity
100
AcDbBlockBegin
2
*MODEL_SPACE
0
ENDBLK
5
21
100
AcDbEntity
100
AcDbBlockEnd
0
BLOCK
5
1C
100
AcDbEntity
100
AcDbBlockBegin
2
*PAPER_SPACE
0
ENDBLK
5
1D
100
AcDbEntity
100
AcDbBlockEnd
0
ENDSEC
0
SECTION
2
ENTITIES
0
LWPOLYLINE
5
100
100
AcDbEntity
8
0
100
AcDbPolyline
90
36
70
1
43
0.0
10
86.000000000000028
20
115.68630023404251
10
86.000000000000028
20
147.68630023404253
10
4.0000000000000213
20
147.68630023404251
10
4.0000000000000213
20
115.68630023404251
10
1.0000000000000142
20
115.68630023404251
10
1.0000000000000142
20
83.686300234042506
10
4.0000000000000213
20
83.686300234042506
10
4.0000000000000213
20
51.096761346853434
10
1.0000000000000142
20
51.096761346853413
10
1.0000000000000142
20
19.096761346853462
10
4.0000000000000213
20
19.096761346853469
10
4.0000000000000213
20
-11.393576033581606
10
86.000000000000028
20
-11.393576033581603
10
86.000000000000028
20
19.096300234042467
10
89.000000000000085
20
19.096300234042459
10
89.000000000000057
20
-11.393576033581606
10
179.00000000000006
20
-11.393576033581603
10
179.00000000000006
20
19.096300234042467
10
182.00000000000006
20
19.096300234042459
10
182.00000000000006
20
-11.393576033581606
10
265.00000000000006
20
-11.393576033581601
10
265.00000000000006
20
19.096761346853476
10
268
20
19.096761346853469
10
268
20
51.096761346853476
10
265.00000000000006
20
51.096761346853469
10
265.00000000000006
20
83.686300234042491
10
268
20
83.686300234042506
10
268
20
115.68630023404248
10
265.00000000000006
20
115.68630023404246
10
265.00000000000006
20
147.68630023404251
10
182.00000000000006
20
147.68630023404251
10
182.00000000000006
20
115.68630023404251
10
179.00000000000006
20
115.68630023404251
10
179.00000000000006
20
147.68630023404253
10
89.000000000000057
20
147.68630023404253
10
89.000000000000057
20
115.68630023404251
0
LWPOLYLINE
5
101
100
AcDbEntity
8
0
100
AcDbPolyline
90
4
70
1
43
0.0
10
182.00000000000006
20
83.686300234042491
10
182.00000000000006
20
51.096300234042467
10
179.00000000000006
20
51.096300234042467
10
179.00000000000006
20
83.686300234042491
0
LWPOLYLINE
5
102
100
AcDbEntity
8
0
100
AcDbPolyline
90
4
70
1
43
0.0
10
89.000000000000071
20
83.686300234042491
10
89.000000000000085
20
51.096300234042467
10
86.000000000000028
20
51.096300234042467
10
86.000000000000028
20
83.686300234042491
0
ENDSEC
0
SECTION
2
OBJECTS
0
DICTIONARY
5
C
100
AcDbDictionary
3
ACAD_GROUP
350
D
3
ACAD_MLINESTYLE
350
17
0
DICTIONARY
5
D
100
AcDbDictionary
0
DICTIONARY
5
1A
330
C
100
AcDbDictionary
0
DICTIONARY
5
17
100
AcDbDictionary
0
ENDSEC
0
EOF
